<svg id="Слой_1" data-name="Слой 1" xmlns="http://www.w3.org/2000/svg" viewBox="0 0 300 80"><defs><style>.cls-1{fill:#fff;}.cls-2{fill:#9f4392;}.cls-2,.cls-3,.cls-4,.cls-5{fill-rule:evenodd;}.cls-3{fill:#0098d5;}.cls-4{fill:#4cad33;}.cls-5{fill:#ffec00;}</style></defs><title>logo</title><path class="cls-1" d="M86.15,45h-7l3.54-10.07Zm6.18,7.49L84,29.76H81.24L72.93,52.44h3.66l1.56-4.55h9l1.56,4.55h3.66ZM73.94,29.76H70.18l-4.75,10-4.75-10H56.93L63.71,43.1v9.33h3.44V43.1ZM55.16,52.44V49.35H44.11V42.53h9.43V39.47H44.11V32.85H55.16V29.76H40.67V52.44H55.16Zm-18.27,0V49.35H26V29.76H22.53V52.44H36.89ZM13.27,45h-7L9.83,34.89Zm6.18,7.49L11.14,29.76H8.37L0.05,52.44H3.72l1.56-4.55h9l1.56,4.55h3.66Z"/><path class="cls-1" d="M115.28,36.1a3.29,3.29,0,0,1-.47,1.78A2.9,2.9,0,0,1,113.52,39a4.67,4.67,0,0,1-1.94.38h-5.1v-6.5h5.1a4.75,4.75,0,0,1,1.94.37,2.91,2.91,0,0,1,1.29,1.1,3.29,3.29,0,0,1,.47,1.78m0.35,9.78a3.67,3.67,0,0,1-.44,1.79,3,3,0,0,1-1.26,1.22,4.3,4.3,0,0,1-2,.46h-5.42V42.44h5.42a4.37,4.37,0,0,1,2,.45,3,3,0,0,1,1.26,1.21,3.61,3.61,0,0,1,.44,1.78M119.07,46a6.4,6.4,0,0,0-.29-1.93A5.26,5.26,0,0,0,118,42.6a5.4,5.4,0,0,0-1.09-1.1,5.91,5.91,0,0,0-1.27-.71,4.4,4.4,0,0,0,1.13-.66,5,5,0,0,0,1-1.05,5.28,5.28,0,0,0,.7-1.4,5.57,5.57,0,0,0,.26-1.7,6.38,6.38,0,0,0-.84-3.31,5.54,5.54,0,0,0-2.36-2.14,8.31,8.31,0,0,0-3.65-.76H103V52.44h9.17A8.79,8.79,0,0,0,115,52a6.18,6.18,0,0,0,2.17-1.22,5.53,5.53,0,0,0,1.41-2,7.28,7.28,0,0,0,.5-2.76"/><path class="cls-1" d="M135.32,36.42a3.67,3.67,0,0,1-.49,1.91,3.17,3.17,0,0,1-1.35,1.21,4.62,4.62,0,0,1-2,.42h-5.1v-7.1h5.1a4.46,4.46,0,0,1,2,.43,3.15,3.15,0,0,1,1.35,1.22,3.71,3.71,0,0,1,.49,1.92m4.14,16-5.22-10a6.45,6.45,0,0,0,2.3-1.15,5.7,5.7,0,0,0,1.61-2,6.67,6.67,0,0,0,.6-2.85,7.17,7.17,0,0,0-.49-2.66,6,6,0,0,0-1.41-2.1,6.35,6.35,0,0,0-2.22-1.38,8.38,8.38,0,0,0-2.91-.49h-8.79V52.44h3.44V42.88h4.3l4.78,9.56h4Z"/><polygon class="cls-1" points="157.78 52.44 157.78 49.35 146.73 49.35 146.73 42.53 156.16 42.53 156.16 39.47 146.73 39.47 146.73 32.85 157.78 32.85 157.78 29.76 143.29 29.76 143.29 52.44 157.78 52.44"/><polygon class="cls-1" points="179.79 52.44 179.79 29.76 176.35 29.76 176.35 45.69 165.87 29.76 162.72 29.76 162.72 52.44 166.16 52.44 166.16 36.48 176.63 52.44 179.79 52.44"/><path class="cls-1" d="M197.52,40.94c0,1,0,2-.05,2.88a11.55,11.55,0,0,1-.32,2.33,4,4,0,0,1-.84,1.67A4.39,4.39,0,0,1,194.63,49a6,6,0,0,1-2.18.37h-4.17V32.85h4.17a5.84,5.84,0,0,1,2.18.37,4.32,4.32,0,0,1,1.68,1.16,3.93,3.93,0,0,1,.84,1.59,10.06,10.06,0,0,1,.32,2.18c0,0.82.06,1.76,0.05,2.8m3.44,0c0-.82,0-1.64,0-2.45a17.28,17.28,0,0,0-.22-2.38,8.52,8.52,0,0,0-.67-2.22,6.89,6.89,0,0,0-1.39-2,6.79,6.79,0,0,0-2.59-1.6,9.7,9.7,0,0,0-3.28-.53h-8V52.44h8a9.7,9.7,0,0,0,3.28-.53,6.78,6.78,0,0,0,2.59-1.6,6.64,6.64,0,0,0,1.39-2,9.12,9.12,0,0,0,.67-2.34,18.92,18.92,0,0,0,.22-2.49c0-.84,0-1.68,0-2.5"/><rect class="cls-1" x="206.64" y="29.76" width="3.44" height="22.68"/><polygon class="cls-1" points="231.79 29.76 228.16 29.76 222.94 46.26 217.71 29.76 214.15 29.76 221.6 52.44 224.28 52.44 231.79 29.76"/><path class="cls-2" d="M251.67,26.81h0.85a3.64,3.64,0,0,1,3.62,3.62V50.62a3.63,3.63,0,0,1-3.62,3.62h-0.85A3.63,3.63,0,0,1,248,50.62V30.44a3.63,3.63,0,0,1,3.62-3.62"/><path class="cls-3" d="M279.88,14.3h0.85a3.64,3.64,0,0,1,3.62,3.62V50.62a3.63,3.63,0,0,1-3.62,3.62h-0.85a3.63,3.63,0,0,1-3.62-3.62V17.93a3.63,3.63,0,0,1,3.62-3.62"/><path class="cls-4" d="M294.24,25.75h0.85a3.64,3.64,0,0,1,3.62,3.62V50.62a3.64,3.64,0,0,1-3.62,3.62h-0.85a3.64,3.64,0,0,1-3.62-3.62V29.37a3.64,3.64,0,0,1,3.62-3.62"/><path class="cls-5" d="M265.88,26.81h0.85a3.64,3.64,0,0,1,3.62,3.63V65.83a3.64,3.64,0,0,1-3.62,3.62h-0.85a3.63,3.63,0,0,1-3.62-3.62V30.44a3.64,3.64,0,0,1,3.62-3.63m0.43-12.19a4.05,4.05,0,1,1-4.05,4.05,4.05,4.05,0,0,1,4.05-4.05"/></svg>