<svg id="Слой_1" data-name="Слой 1" xmlns="http://www.w3.org/2000/svg" viewBox="0 0 127.09 80"><defs><style>.cls-1{fill:#2e2a25;}</style></defs><title>partner</title><path class="cls-1" d="M12.81,38.21l0.56,5.21L17.52,43l0.39,3.67c0.2,1.91-1,3.92-3.8,4.23a3.85,3.85,0,0,1-4.55-3.33L7.76,30.73c-0.21-2,.93-3.92,3.69-4.22s4.17,1.28,4.38,3.24l0.31,2.87,7.34-.78L23.2,29.19c-0.59-5.53-4.93-9.86-12.48-9S-0.51,26.4.06,31.66l1.78,16.6c0.59,5.48,4.67,9.94,11.69,9.19,3.35-.36,6.06-2.16,7.16-5L22,55.63l4.15-.44L24.19,37Zm36.89-21-7.42.53,1.89,26.36c0.17,2.4-1.17,3.84-3.73,4s-4-1.05-4.16-3.46L34.38,18.34l-7.74.56,1.9,26.47C29,51.29,34.17,55,40.89,54.51S52,49.63,51.6,43.71ZM68.13,30.13c-4.67-2.1-6.77-3.38-6.91-5.89a3.39,3.39,0,0,1,3.5-3.73c2.67-.15,4.11,1.65,4.24,4.06L69,25.69l6.89-.37-0.08-1.44c-0.31-5.66-4.87-9.81-11.39-9.45-7.26.39-10.9,5.52-10.6,11s5,8,9.39,10.1c4.23,1.91,6.34,3.35,6.48,5.92s-1.12,4.08-3.84,4.23-4.36-1.37-4.52-4.36l-0.06-1.17-7,.38,0.1,1.82c0.33,6.09,5,9.86,12,9.48s11.11-5.64,10.79-11.41c-0.28-5.18-3.9-7.77-9-10.23m32.25-17.88-23,.84,0.24,6.52,7.7-.28L86.4,48.41,94,48.13,93,19.05l7.65-.28ZM121.1,0l-6.26.12-2,7.69,3.64-.07Zm5.68,19.69c-0.12-6.31-4.54-10.77-11.92-10.63s-11.63,4.77-11.5,11.08l0.3,15.62c0.12,6.36,4.6,10.83,11.92,10.68s11.63-4.77,11.5-11.14ZM115.46,40a3.7,3.7,0,0,1-4-3.93L111.1,19.56a4,4,0,1,1,8-.16l0.32,16.47A3.71,3.71,0,0,1,115.46,40"/><path class="cls-1" d="M37.45,70.22a0.53,0.53,0,0,1,0,.11s-0.06.09-.09,0.16S37.27,70.69,37,71c0,0-.11.13-0.19,0.23a0.7,0.7,0,0,1-.1.2c-0.23.27-.55,0.7-1,1.28l-0.58.67a0.51,0.51,0,0,0-.2.2,0.79,0.79,0,0,0-.26.26l-0.06,0a2.49,2.49,0,0,1-.27.29l0,0s0,0,0,0l-0.79.5s0,0,0,0l-0.21,0a0.38,0.38,0,0,1-.23,0,2.35,2.35,0,0,1-.52-0.38,0.94,0.94,0,0,0-.11-0.2,0.15,0.15,0,0,0,0-.07s0,0,0,0a3,3,0,0,1-.08-0.35,2.08,2.08,0,0,0-.07-0.34,1.08,1.08,0,0,0,0-.15l0-.38s0-.06,0-0.07V72.63a0.09,0.09,0,0,0,0-.06l-0.35.51c-0.77,1.11-1.35,1.68-1.73,1.71a0.11,0.11,0,0,1-.12-0.06l0,0a2,2,0,0,0-.23-0.07,2.18,2.18,0,0,1-.28-0.23l-0.06-.07s0,0,0,0l-0.13-.26a2,2,0,0,0,0-.44c0-.12,0-0.31,0-0.55s0.14-.69.26-1.17c0.1-.25.19-0.44,0.27-0.6a0,0,0,0,0,0,0s0,0,0,0a3.71,3.71,0,0,1,.42-0.93,3.28,3.28,0,0,1,.65-0.82l0.13-.05,0-.06a0.91,0.91,0,0,0,.21-0.14h0a0.25,0.25,0,0,1,.13-0.08h0.11a3,3,0,0,1,.4.06s0,0,0,0l0.76,0.24c0.07-.22.14-0.44,0.2-0.66A0.26,0.26,0,0,1,33,68.58l0.16,0s0,0,0,0l0.23,0.06L33.7,68.7h0.16a1.89,1.89,0,0,0-.15.43c-0.09.39-.24,1-0.42,1.71-0.06.41-.14,0.84-0.25,1.32a3.51,3.51,0,0,0,0,.55,0.52,0.52,0,0,1,0,.35l0,0a0.89,0.89,0,0,1,0,.11s0,0.1,0,.14L33.16,74l0.15,0.31c0.1,0.11.22,0.2,0.75-.24a1.86,1.86,0,0,0,.38-0.35,4.52,4.52,0,0,0,.33-0.31,0.06,0.06,0,0,0,0,.05,0.07,0.07,0,0,1,0-.06s0,0,0,0a4.81,4.81,0,0,1,.54-0.61h0a0.09,0.09,0,0,0,0-.05s0,0,0,0h0a0.21,0.21,0,0,1,0-.07l0.32-.34a0.16,0.16,0,0,1,.09-0.14h0s0,0,0,0A0.18,0.18,0,0,0,36,72a1,1,0,0,1,.25-0.33c0.13-.17.36-0.49,0.66-1a0.08,0.08,0,0,0,0-.08,0.88,0.88,0,0,0,.14-0.16,2.11,2.11,0,0,1,.23-0.37,0.65,0.65,0,0,1,.15-0.27,0.29,0.29,0,0,1,.11.11,1.06,1.06,0,0,1-.11.22m-5.06-.63a2,2,0,0,0-.36.12s0,0,0,0h0l-0.11.06h0s0,0,0,0a1.65,1.65,0,0,0-.54.53l-0.19.22a0.19,0.19,0,0,1-.07.1s0,0-.05,0a6.4,6.4,0,0,1-.34.55l0,0.15a0.24,0.24,0,0,0,0,.06c-0.06.11-.15,0.4-0.3,0.86l-0.16.66a2.83,2.83,0,0,0-.08.8s0,0.11,0,.12a3.44,3.44,0,0,1,.07.34v0.11a0.6,0.6,0,0,0,.14.25,1.1,1.1,0,0,0,.41-0.32A3.61,3.61,0,0,1,31,73.91,16.2,16.2,0,0,0,32,72.41l0.06-.1,0.26-.57,0.13-.84a1.13,1.13,0,0,1,0-.22,2,2,0,0,1,0-.29,1.63,1.63,0,0,0,.07-0.61,0.38,0.38,0,0,0-.26-0.21m1.84,4.69v0h0Zm1.65-2.12h0l0,0Z"/><path class="cls-1" d="M37.45,70.22a0.53,0.53,0,0,1,0,.11s-0.06.09-.09,0.16S37.27,70.69,37,71c0,0-.11.13-0.19,0.23a0.7,0.7,0,0,1-.1.2c-0.23.27-.55,0.7-1,1.28l-0.58.67a0.51,0.51,0,0,0-.2.2,0.79,0.79,0,0,0-.26.26l-0.06,0a2.49,2.49,0,0,1-.27.29l0,0s0,0,0,0l-0.79.5s0,0,0,0l-0.21,0a0.38,0.38,0,0,1-.23,0,2.35,2.35,0,0,1-.52-0.38,0.94,0.94,0,0,0-.11-0.2,0.15,0.15,0,0,0,0-.07s0,0,0,0a3,3,0,0,1-.08-0.35,2.08,2.08,0,0,0-.07-0.34,1.08,1.08,0,0,0,0-.15l0-.38s0-.06,0-0.07V72.63a0.09,0.09,0,0,0,0-.06l-0.35.51c-0.77,1.11-1.35,1.68-1.73,1.71a0.11,0.11,0,0,1-.12-0.06l0,0a2,2,0,0,0-.23-0.07,2.18,2.18,0,0,1-.28-0.23l-0.06-.07s0,0,0,0l-0.13-.26a2,2,0,0,0,0-.44c0-.12,0-0.31,0-0.55s0.14-.69.26-1.17c0.1-.25.19-0.44,0.27-0.6a0,0,0,0,0,0,0s0,0,0,0a3.71,3.71,0,0,1,.42-0.93,3.28,3.28,0,0,1,.65-0.82l0.13-.05,0-.06a0.91,0.91,0,0,0,.21-0.14h0a0.25,0.25,0,0,1,.13-0.08h0.11a3,3,0,0,1,.4.06s0,0,0,0l0.76,0.24c0.07-.22.14-0.44,0.2-0.66A0.26,0.26,0,0,1,33,68.58l0.16,0s0,0,0,0l0.23,0.06L33.7,68.7h0.16a1.89,1.89,0,0,0-.15.43c-0.09.39-.24,1-0.42,1.71-0.06.41-.14,0.84-0.25,1.32a3.51,3.51,0,0,0,0,.55,0.52,0.52,0,0,1,0,.35l0,0a0.89,0.89,0,0,1,0,.11s0,0.1,0,.14L33.16,74l0.15,0.31c0.1,0.11.22,0.2,0.75-.24a1.86,1.86,0,0,0,.38-0.35,4.52,4.52,0,0,0,.33-0.31,0.06,0.06,0,0,0,0,.05,0.07,0.07,0,0,1,0-.06s0,0,0,0a4.81,4.81,0,0,1,.54-0.61h0a0.09,0.09,0,0,0,0-.05s0,0,0,0h0a0.21,0.21,0,0,1,0-.07l0.32-.34a0.16,0.16,0,0,1,.09-0.14h0s0,0,0,0A0.18,0.18,0,0,0,36,72a1,1,0,0,1,.25-0.33c0.13-.17.36-0.49,0.66-1a0.08,0.08,0,0,0,0-.08,0.88,0.88,0,0,0,.14-0.16,2.11,2.11,0,0,1,.23-0.37,0.65,0.65,0,0,1,.15-0.27,0.29,0.29,0,0,1,.11.11,1.06,1.06,0,0,1-.11.22m-5.06-.63a2,2,0,0,0-.36.12s0,0,0,0h0l-0.11.06h0s0,0,0,0a1.65,1.65,0,0,0-.54.53l-0.19.22a0.19,0.19,0,0,1-.07.1s0,0-.05,0a6.4,6.4,0,0,1-.34.55l0,0.15a0.24,0.24,0,0,0,0,.06c-0.06.11-.15,0.4-0.3,0.86l-0.16.66a2.83,2.83,0,0,0-.08.8s0,0.11,0,.12a3.44,3.44,0,0,1,.07.34v0.11a0.6,0.6,0,0,0,.14.25,1.1,1.1,0,0,0,.41-0.32A3.61,3.61,0,0,1,31,73.91,16.2,16.2,0,0,0,32,72.41l0.06-.1,0.26-.57,0.13-.84a1.13,1.13,0,0,1,0-.22,2,2,0,0,1,0-.29,1.63,1.63,0,0,0,.07-0.61,0.38,0.38,0,0,0-.26-0.21m1.84,4.69v0h0Zm1.65-2.12h0l0,0Z"/><path class="cls-1" d="M42.84,68.93c-0.11.1-.28,0.27-0.49,0.48a5.13,5.13,0,0,1-.54.51,6.87,6.87,0,0,1-.66.6,12.52,12.52,0,0,1-1.5,1.15,4.28,4.28,0,0,0-.79.62,0.26,0.26,0,0,0,0,.11,0.11,0.11,0,0,0-.06.07,0.08,0.08,0,0,0,.08,0l0,0.19-0.11.13a0.2,0.2,0,0,0,.08,0c-0.06.06-.06,0.1,0,0.14V73a0.14,0.14,0,0,1-.07.06l0,0v0.05c-0.09,0-.11.08-0.07,0.07s0,0,0,0h0.09a0.14,0.14,0,0,0,0,.09,0.21,0.21,0,0,0-.07.06,0.13,0.13,0,0,0,0,.06,0,0,0,0,0,0,0v0.27a0.36,0.36,0,0,0,0,.15,1.35,1.35,0,0,1,0,.3,0.54,0.54,0,0,1-.37,0L38,74.12a0.2,0.2,0,0,1-.17-0.17,2.48,2.48,0,0,1,.05-0.49l0,0a0.22,0.22,0,0,0,0-.08A3.55,3.55,0,0,1,38,73a1.11,1.11,0,0,0,0-.35,0.13,0.13,0,0,0,0-.07l0-.06a1.35,1.35,0,0,1-.48.11A0.86,0.86,0,0,1,36.69,72,2.12,2.12,0,0,1,37,70.88a1.42,1.42,0,0,1,.41-0.48,0.81,0.81,0,0,1,.81.23,0.38,0.38,0,0,1,.07.22,3,3,0,0,1,.12-0.63,0.24,0.24,0,0,0,0-.06,1.23,1.23,0,0,0,0-.12s0,0,0,0a0.6,0.6,0,0,0,0-.14l0-.06a0.14,0.14,0,0,1,0-.14s0,0,0-.07l0.15-1,0.05,0s0,0,0,0l0.14-.88V67.58l-0.7,1.1-0.45.8a6.22,6.22,0,0,0-.38.58,0.43,0.43,0,0,0-.09.09c-0.08.13-.18,0.31-0.32,0.56a1.42,1.42,0,0,0-.23.27c-0.06.09-.15,0.23-0.26,0.41l-0.28.32c-0.47.59-.72,0.89-0.73,0.89a0.73,0.73,0,0,1-.29-0.11A6.07,6.07,0,0,0,35.54,72s0,0,0,0h0a0.26,0.26,0,0,0,.08-0.1,1.35,1.35,0,0,1,.29-0.37,3.33,3.33,0,0,1,.21-0.27A1.19,1.19,0,0,1,36.31,71l0,0s0,0,0,0l0.3-.4a8,8,0,0,0,.5-0.77c0.11-.16.27-0.41,0.47-0.75l0.11-.1c0.27-.37.65-1,1.14-1.81l0,0L39,66.77l0,0a5.45,5.45,0,0,1,.25-0.81h0a5.32,5.32,0,0,1,.18-0.66l0.1-.4,0.06-.09V64.68a0.14,0.14,0,0,1,.06,0,0,0,0,0,0,0,0,0.52,0.52,0,0,1,.17-0.22,3.27,3.27,0,0,1,.69.16,0.15,0.15,0,0,1,.08.13,1.14,1.14,0,0,1-.16.4,0.28,0.28,0,0,1-.09.18v0.08a1,1,0,0,0-.2.39l-0.17.46s0,0,0,.06,0,0-.08.16l-0.21.79a0.2,0.2,0,0,0,0,.19,0.1,0.1,0,0,1-.06.07,1,1,0,0,0,0,.34,0.32,0.32,0,0,0-.08,0,0.12,0.12,0,0,1,0,0s0,0,0,0a0.11,0.11,0,0,1,0,.05,0.32,0.32,0,0,1-.08.13s0,0,0,0a0.28,0.28,0,0,0,0,.1,0.2,0.2,0,0,1,0,0c0,0.05,0,.08,0,0.08h0l0,0s0,0,0,0a0.72,0.72,0,0,0-.11.36v0a0.1,0.1,0,0,0,.06.06,0.11,0.11,0,0,0,0,.16,2.72,2.72,0,0,0-.12.25h0l0.05,0a0.66,0.66,0,0,1-.08.1,0.2,0.2,0,0,1,0,.08,0,0,0,0,0,0,0c0,0.06,0,.08,0,0.09a1.78,1.78,0,0,0-.05.34l0,0a0.1,0.1,0,0,1,0,0c0-.05,0,0,0,0.37,0,0-.05,0,0,0.06a0.66,0.66,0,0,0-.06.13l0.07-.07a1.23,1.23,0,0,1-.09.23h0L39,70.68l0,0,0,0a0,0,0,0,0,0,0,1.23,1.23,0,0,0-.1.41l0,0v0a0.32,0.32,0,0,0,0,.31,0,0,0,0,0,0,0s0,0,0,.05h0l0,0,0.06,0.08v0h0l0,0,0.06,0a0.18,0.18,0,0,0-.07.11c0,0.06,0,.09.07,0.09l1.83-1.33a21,21,0,0,0,2.15-1.9,0.49,0.49,0,0,1-.09.32M35.56,72h0l0,0h0Zm2.39-1.3a1.93,1.93,0,0,0-.42.65,1.46,1.46,0,0,0-.14.69c0,0.26.18,0.36,0.38,0.28a0.7,0.7,0,0,0,.33-0.16,0.31,0.31,0,0,1,0-.2,0.17,0.17,0,0,1,0-.12,0.2,0.2,0,0,1,0-.09l0-.4V71.24a0.69,0.69,0,0,0-.21-0.56m0.74,3.07h0l0,0v0Zm0-.17h0v0Zm0-.07h0l0,0v0Zm0.09-.92h0v0h0v0Zm0.36-2.37,0,0h0Zm0-.29V70a0.12,0.12,0,0,0,0-.06h0m0.09-.22h0v0Z"/><path class="cls-1" d="M42.84,68.93c-0.11.1-.28,0.27-0.49,0.48a5.13,5.13,0,0,1-.54.51,6.87,6.87,0,0,1-.66.6,12.52,12.52,0,0,1-1.5,1.15,4.28,4.28,0,0,0-.79.62,0.26,0.26,0,0,0,0,.11,0.11,0.11,0,0,0-.06.07,0.08,0.08,0,0,0,.08,0l0,0.19-0.11.13a0.2,0.2,0,0,0,.08,0c-0.06.06-.06,0.1,0,0.14V73a0.14,0.14,0,0,1-.07.06l0,0v0.05c-0.09,0-.11.08-0.07,0.07s0,0,0,0h0.09a0.14,0.14,0,0,0,0,.09,0.21,0.21,0,0,0-.07.06,0.13,0.13,0,0,0,0,.06,0,0,0,0,0,0,0v0.27a0.36,0.36,0,0,0,0,.15,1.35,1.35,0,0,1,0,.3,0.54,0.54,0,0,1-.37,0L38,74.12a0.2,0.2,0,0,1-.17-0.17,2.48,2.48,0,0,1,.05-0.49l0,0a0.22,0.22,0,0,0,0-.08A3.55,3.55,0,0,1,38,73a1.11,1.11,0,0,0,0-.35,0.13,0.13,0,0,0,0-.07l0-.06a1.35,1.35,0,0,1-.48.11A0.86,0.86,0,0,1,36.69,72,2.12,2.12,0,0,1,37,70.88a1.42,1.42,0,0,1,.41-0.48,0.81,0.81,0,0,1,.81.23,0.38,0.38,0,0,1,.07.22,3,3,0,0,1,.12-0.63,0.24,0.24,0,0,0,0-.06,1.23,1.23,0,0,0,0-.12s0,0,0,0a0.6,0.6,0,0,0,0-.14l0-.06a0.14,0.14,0,0,1,0-.14s0,0,0-.07l0.15-1,0.05,0s0,0,0,0l0.14-.88V67.58l-0.7,1.1-0.45.8a6.22,6.22,0,0,0-.38.58,0.43,0.43,0,0,0-.09.09c-0.08.13-.18,0.31-0.32,0.56a1.42,1.42,0,0,0-.23.27c-0.06.09-.15,0.23-0.26,0.41l-0.28.32c-0.47.59-.72,0.89-0.73,0.89a0.73,0.73,0,0,1-.29-0.11A6.07,6.07,0,0,0,35.54,72s0,0,0,0h0a0.26,0.26,0,0,0,.08-0.1,1.35,1.35,0,0,1,.29-0.37,3.33,3.33,0,0,1,.21-0.27A1.19,1.19,0,0,1,36.31,71l0,0s0,0,0,0l0.3-.4a8,8,0,0,0,.5-0.77c0.11-.16.27-0.41,0.47-0.75l0.11-.1c0.27-.37.65-1,1.14-1.81l0,0L39,66.77l0,0a5.45,5.45,0,0,1,.25-0.81h0a5.32,5.32,0,0,1,.18-0.66l0.1-.4,0.06-.09V64.68a0.14,0.14,0,0,1,.06,0,0,0,0,0,0,0,0,0.52,0.52,0,0,1,.17-0.22,3.27,3.27,0,0,1,.69.16,0.15,0.15,0,0,1,.08.13,1.14,1.14,0,0,1-.16.4,0.28,0.28,0,0,1-.09.18v0.08a1,1,0,0,0-.2.39l-0.17.46s0,0,0,.06,0,0-.08.16l-0.21.79a0.2,0.2,0,0,0,0,.19,0.1,0.1,0,0,1-.06.07,1,1,0,0,0,0,.34,0.32,0.32,0,0,0-.08,0,0.12,0.12,0,0,1,0,0s0,0,0,0a0.11,0.11,0,0,1,0,.05,0.32,0.32,0,0,1-.08.13s0,0,0,0a0.28,0.28,0,0,0,0,.1,0.2,0.2,0,0,1,0,0c0,0.05,0,.08,0,0.08h0l0,0s0,0,0,0a0.72,0.72,0,0,0-.11.36v0a0.1,0.1,0,0,0,.06.06,0.11,0.11,0,0,0,0,.16,2.72,2.72,0,0,0-.12.25h0l0.05,0a0.66,0.66,0,0,1-.08.1,0.2,0.2,0,0,1,0,.08,0,0,0,0,0,0,0c0,0.06,0,.08,0,0.09a1.78,1.78,0,0,0-.05.34l0,0a0.1,0.1,0,0,1,0,0c0-.05,0,0,0,0.37,0,0-.05,0,0,0.06a0.66,0.66,0,0,0-.06.13l0.07-.07a1.23,1.23,0,0,1-.09.23h0L39,70.68l0,0,0,0a0,0,0,0,0,0,0,1.23,1.23,0,0,0-.1.41l0,0v0a0.32,0.32,0,0,0,0,.31,0,0,0,0,0,0,0s0,0,0,.05h0l0,0,0.06,0.08v0h0l0,0,0.06,0a0.18,0.18,0,0,0-.07.11c0,0.06,0,.09.07,0.09l1.83-1.33a21,21,0,0,0,2.15-1.9,0.49,0.49,0,0,1-.09.32M35.56,72h0l0,0h0Zm2.39-1.3a1.93,1.93,0,0,0-.42.65,1.46,1.46,0,0,0-.14.69c0,0.26.18,0.36,0.38,0.28a0.7,0.7,0,0,0,.33-0.16,0.31,0.31,0,0,1,0-.2,0.17,0.17,0,0,1,0-.12,0.2,0.2,0,0,1,0-.09l0-.4V71.24a0.69,0.69,0,0,0-.21-0.56m0.74,3.07h0l0,0v0Zm0-.17h0v0Zm0-.07h0l0,0v0Zm0.09-.92h0v0h0v0Zm0.36-2.37,0,0h0Zm0-.29V70a0.12,0.12,0,0,0,0-.06h0m0.09-.22h0v0Z"/><path class="cls-1" d="M51.4,69.24l-0.47.66a1.57,1.57,0,0,0-.23.53l-0.11.26a1.62,1.62,0,0,1-.11.38,1.32,1.32,0,0,1-.09.36,1.5,1.5,0,0,1-.07.38c-0.09.24-.11,0.42-0.2,0.71v0.2L50,73l-0.06.19A10.25,10.25,0,0,0,51.28,72q0.81-.77,1.13-1.14s0,0,0,0a0.5,0.5,0,0,0,0-.09,0.52,0.52,0,0,0,.23-0.27h0a1.61,1.61,0,0,0,.17-0.21l0.3-.37c0.07-.1.18-0.24,0.32-0.42l0.4-.56A0.14,0.14,0,0,1,54,69a0.54,0.54,0,0,1-.14.4,1.2,1.2,0,0,0-.22.34,3.07,3.07,0,0,0-.34.47h0l0,0.1L53,70.56h0s0,0,0,0a0.36,0.36,0,0,0-.18.22l-0.09.09a0.2,0.2,0,0,1-.06.1h0l-0.12.16a1.92,1.92,0,0,1-.18.2c-0.14.13-.33,0.35-0.58,0.63a1.31,1.31,0,0,1-.23.22s0,0,0,0a0.94,0.94,0,0,0-.27.24h0l-0.16.15a0.1,0.1,0,0,0-.06.06h0s0,0,0,0a0.2,0.2,0,0,0-.1.09v0l0,0.07a0.63,0.63,0,0,0-.19.14,10.78,10.78,0,0,1-.84.67l0,0.1-0.2.59s0,0,0,0a2.42,2.42,0,0,0-.1.32,0.74,0.74,0,0,1-.05.18,0.09,0.09,0,0,0,0,.1,8,8,0,0,1-.29.79l0,0a2.81,2.81,0,0,0-.18.43s-0.05,0-.05,0l-0.24.47s0,0,.05,0a3.67,3.67,0,0,1-.24.3h0a0.13,0.13,0,0,0,0,.07l0,0c-0.06.1-.13,0.23-0.2,0.39a6.72,6.72,0,0,0-.46.68l-0.17.2a0.3,0.3,0,0,0-.13.16h0a0.64,0.64,0,0,1-.06.13,0.06,0.06,0,0,0-.05,0,0.09,0.09,0,0,0,0,.1,0.14,0.14,0,0,0-.12.12l-0.13.08a0.06,0.06,0,0,1,0,0l-0.77.61a0.49,0.49,0,0,1-.3.18,4,4,0,0,1-.77.31,2.25,2.25,0,0,1-1.87-.31h0a0.26,0.26,0,0,1-.1-0.1,0.48,0.48,0,0,1-.08-0.29,3.41,3.41,0,0,1,.94-2.1,5,5,0,0,1,1.35-1.36,2.77,2.77,0,0,1,.22-0.19l0.07-.06a7.85,7.85,0,0,0,.8-0.56h0a0.21,0.21,0,0,0,.16-0.12,1.11,1.11,0,0,0,.31-0.2,0,0,0,0,0,0,0c0.05,0,.2-0.14.21-0.14l0,0a0.13,0.13,0,0,1,.11-0.09h0l0,0,0,0a1,1,0,0,0,.15-0.15h0L48.47,74l0.32-.15A0.3,0.3,0,0,0,49,73.51l0.09-.2a0.33,0.33,0,0,1,.1-0.26l-0.06,0c0-.07,0-0.1,0-0.08h0a1.56,1.56,0,0,1,.06-0.29h0s0-.07,0-0.07a0.31,0.31,0,0,0,0-.08h0s0,0,0,0a11.58,11.58,0,0,0,.36-1.33c-0.67.74-1.13,1.23-1.36,1.45a1.42,1.42,0,0,1-.8.4,1.24,1.24,0,0,1-.66-0.24,0.84,0.84,0,0,1-.46-0.47s-0.06-.22-0.06-0.28a1,1,0,0,1,.08-0.64h0a1.27,1.27,0,0,1,.07-0.27,0.53,0.53,0,0,1,0-.08c0.05-.34.13-0.8,0.25-1.39a0.48,0.48,0,0,1,.07-0.31,4.44,4.44,0,0,1,.19-0.75h0l0.21-.79a0.61,0.61,0,0,1,.4-0.54,4.72,4.72,0,0,1,.8.21,0.1,0.1,0,0,1,0,.16,0.52,0.52,0,0,0-.39.42,0.27,0.27,0,0,1,0,.08,4,4,0,0,1-.16.44,5.14,5.14,0,0,1-.25.84c0,0.11-.07.27-0.14,0.51a3.63,3.63,0,0,1,0,.5,0.22,0.22,0,0,0,0,.08,8.13,8.13,0,0,0-.1,1l0,0.53a1,1,0,0,1,0,.32l0.07,0.23a0.18,0.18,0,0,0,.19.09,2.8,2.8,0,0,0,1.09-.84c0.55-.54.92-0.91,1.07-1.08a3.6,3.6,0,0,0,.33-0.36L50,70.05a16,16,0,0,1,.7-1.87v0A1.1,1.1,0,0,1,51,67.86a1.7,1.7,0,0,1,.33.09,1.53,1.53,0,0,1,.44.18,0.2,0.2,0,0,1,.07.21,2,2,0,0,1-.44.89m-2.66,4.88-0.44.23,0,0L48,74.52a0.26,0.26,0,0,0-.11.05,1,1,0,0,1-.27.14l-1,.62,0,0a2.33,2.33,0,0,1-.35.28h0L46,75.7l-0.26.22-0.35.27v0l-0.5.51-0.45.49-0.06.13a0.07,0.07,0,0,1,0-.05,1.83,1.83,0,0,1-.23.38,3.74,3.74,0,0,0-.39.9,0.5,0.5,0,0,1-.09.21s0,0.12,0,.24v0.19a1.07,1.07,0,0,0,.07.26,0.6,0.6,0,0,0,.24.15,1,1,0,0,0,.49.13,2.58,2.58,0,0,0,1.25-.56L45.91,79a5.07,5.07,0,0,0,.59-0.55,1,1,0,0,0,.14-0.13,0.69,0.69,0,0,0,.09-0.14,0.88,0.88,0,0,0,.22-0.25l0.21-.3s0,0,0,0,0,0,.06,0,0,0,0,0h0a0.93,0.93,0,0,0,.19-0.27l-0.05,0c0.07-.11.19-0.28,0.37-0.51l0,0a2.09,2.09,0,0,0,.22-0.51l0.34-.62a0.22,0.22,0,0,1,.08-0.26,0.61,0.61,0,0,1,0-.08h0V75.22c0.05-.15.14-0.4,0.28-0.75a0.54,0.54,0,0,1,.1-0.34h0m-1.28,3.13,0,0,0,0v0Zm0.32-3h0Zm0.1,0.27h0Zm0.33-.48,0,0Zm1-1.55h0Zm2.26-4.21a2.5,2.5,0,0,0-.28.49,3,3,0,0,0-.19.43s0,0,0,0a4.52,4.52,0,0,0,.41-0.66,0.56,0.56,0,0,0,.06-0.26Z"/><path class="cls-1" d="M51.4,69.24l-0.47.66a1.57,1.57,0,0,0-.23.53l-0.11.26a1.62,1.62,0,0,1-.11.38,1.32,1.32,0,0,1-.09.36,1.5,1.5,0,0,1-.07.38c-0.09.24-.11,0.42-0.2,0.71v0.2L50,73l-0.06.19A10.25,10.25,0,0,0,51.28,72q0.81-.77,1.13-1.14s0,0,0,0a0.5,0.5,0,0,0,0-.09,0.52,0.52,0,0,0,.23-0.27h0a1.61,1.61,0,0,0,.17-0.21l0.3-.37c0.07-.1.18-0.24,0.32-0.42l0.4-.56A0.14,0.14,0,0,1,54,69a0.54,0.54,0,0,1-.14.4,1.2,1.2,0,0,0-.22.34,3.07,3.07,0,0,0-.34.47h0l0,0.1L53,70.56h0s0,0,0,0a0.36,0.36,0,0,0-.18.22l-0.09.09a0.2,0.2,0,0,1-.06.1h0l-0.12.16a1.92,1.92,0,0,1-.18.2c-0.14.13-.33,0.35-0.58,0.63a1.31,1.31,0,0,1-.23.22s0,0,0,0a0.94,0.94,0,0,0-.27.24h0l-0.16.15a0.1,0.1,0,0,0-.06.06h0s0,0,0,0a0.2,0.2,0,0,0-.1.09v0l0,0.07a0.63,0.63,0,0,0-.19.14,10.78,10.78,0,0,1-.84.67l0,0.1-0.2.59s0,0,0,0a2.42,2.42,0,0,0-.1.32,0.74,0.74,0,0,1-.05.18,0.09,0.09,0,0,0,0,.1,8,8,0,0,1-.29.79l0,0a2.81,2.81,0,0,0-.18.43s-0.05,0-.05,0l-0.24.47s0,0,.05,0a3.67,3.67,0,0,1-.24.3h0a0.13,0.13,0,0,0,0,.07l0,0c-0.06.1-.13,0.23-0.2,0.39a6.72,6.72,0,0,0-.46.68l-0.17.2a0.3,0.3,0,0,0-.13.16h0a0.64,0.64,0,0,1-.06.13,0.06,0.06,0,0,0-.05,0,0.09,0.09,0,0,0,0,.1,0.14,0.14,0,0,0-.12.12l-0.13.08a0.06,0.06,0,0,1,0,0l-0.77.61a0.49,0.49,0,0,1-.3.18,4,4,0,0,1-.77.31,2.25,2.25,0,0,1-1.87-.31h0a0.26,0.26,0,0,1-.1-0.1,0.48,0.48,0,0,1-.08-0.29,3.41,3.41,0,0,1,.94-2.1,5,5,0,0,1,1.35-1.36,2.77,2.77,0,0,1,.22-0.19l0.07-.06a7.85,7.85,0,0,0,.8-0.56h0a0.21,0.21,0,0,0,.16-0.12,1.11,1.11,0,0,0,.31-0.2,0,0,0,0,0,0,0c0.05,0,.2-0.14.21-0.14l0,0a0.13,0.13,0,0,1,.11-0.09h0l0,0,0,0a1,1,0,0,0,.15-0.15h0L48.47,74l0.32-.15A0.3,0.3,0,0,0,49,73.51l0.09-.2a0.33,0.33,0,0,1,.1-0.26l-0.06,0c0-.07,0-0.1,0-0.08h0a1.56,1.56,0,0,1,.06-0.29h0s0-.07,0-0.07a0.31,0.31,0,0,0,0-.08h0s0,0,0,0a11.58,11.58,0,0,0,.36-1.33c-0.67.74-1.13,1.23-1.36,1.45a1.42,1.42,0,0,1-.8.4,1.24,1.24,0,0,1-.66-0.24,0.84,0.84,0,0,1-.46-0.47s-0.06-.22-0.06-0.28a1,1,0,0,1,.08-0.64h0a1.27,1.27,0,0,1,.07-0.27,0.53,0.53,0,0,1,0-.08c0.05-.34.13-0.8,0.25-1.39a0.48,0.48,0,0,1,.07-0.31,4.44,4.44,0,0,1,.19-0.75h0l0.21-.79a0.61,0.61,0,0,1,.4-0.54,4.72,4.72,0,0,1,.8.21,0.1,0.1,0,0,1,0,.16,0.52,0.52,0,0,0-.39.42,0.27,0.27,0,0,1,0,.08,4,4,0,0,1-.16.44,5.14,5.14,0,0,1-.25.84c0,0.11-.07.27-0.14,0.51a3.63,3.63,0,0,1,0,.5,0.22,0.22,0,0,0,0,.08,8.13,8.13,0,0,0-.1,1l0,0.53a1,1,0,0,1,0,.32l0.07,0.23a0.18,0.18,0,0,0,.19.09,2.8,2.8,0,0,0,1.09-.84c0.55-.54.92-0.91,1.07-1.08a3.6,3.6,0,0,0,.33-0.36L50,70.05a16,16,0,0,1,.7-1.87v0A1.1,1.1,0,0,1,51,67.86a1.7,1.7,0,0,1,.33.09,1.53,1.53,0,0,1,.44.18,0.2,0.2,0,0,1,.07.21,2,2,0,0,1-.44.89m-2.66,4.88-0.44.23,0,0L48,74.52a0.26,0.26,0,0,0-.11.05,1,1,0,0,1-.27.14l-1,.62,0,0a2.33,2.33,0,0,1-.35.28h0L46,75.7l-0.26.22-0.35.27v0l-0.5.51-0.45.49-0.06.13a0.07,0.07,0,0,1,0-.05,1.83,1.83,0,0,1-.23.38,3.74,3.74,0,0,0-.39.9,0.5,0.5,0,0,1-.09.21s0,0.12,0,.24v0.19a1.07,1.07,0,0,0,.07.26,0.6,0.6,0,0,0,.24.15,1,1,0,0,0,.49.13,2.58,2.58,0,0,0,1.25-.56L45.91,79a5.07,5.07,0,0,0,.59-0.55,1,1,0,0,0,.14-0.13,0.69,0.69,0,0,0,.09-0.14,0.88,0.88,0,0,0,.22-0.25l0.21-.3s0,0,0,0,0,0,.06,0,0,0,0,0h0a0.93,0.93,0,0,0,.19-0.27l-0.05,0c0.07-.11.19-0.28,0.37-0.51l0,0a2.09,2.09,0,0,0,.22-0.51l0.34-.62a0.22,0.22,0,0,1,.08-0.26,0.61,0.61,0,0,1,0-.08h0V75.22c0.05-.15.14-0.4,0.28-0.75a0.54,0.54,0,0,1,.1-0.34h0m-1.28,3.13,0,0,0,0v0Zm0.32-3h0Zm0.1,0.27h0Zm0.33-.48,0,0Zm1-1.55h0Zm2.26-4.21a2.5,2.5,0,0,0-.28.49,3,3,0,0,0-.19.43s0,0,0,0a4.52,4.52,0,0,0,.41-0.66,0.56,0.56,0,0,0,.06-0.26Z"/><path class="cls-1" d="M60.88,66.92l-0.11,0-0.13,0H60.5a7,7,0,0,0-1.67.56c-0.29.16-.73,0.38-1.32,0.67a2.05,2.05,0,0,1-.31.15c0.05,0.14.1,0.25,0.12,0.32l0,0.32a7.59,7.59,0,0,1-.09,1,4.47,4.47,0,0,1-.56,1.51,5.16,5.16,0,0,1-.91,1.09,2.05,2.05,0,0,1-.74.33,3.31,3.31,0,0,1-.93-0.19,4.66,4.66,0,0,1-.78-0.5A0.62,0.62,0,0,0,53.17,72L53,71.5s-0.08-.3-0.08-0.32a0.17,0.17,0,0,1,0-.05,3.46,3.46,0,0,1,0-.68,3.37,3.37,0,0,0,0-.56l0.06,0a0.05,0.05,0,0,0,0,0,0.84,0.84,0,0,1,0-.23h0a6.64,6.64,0,0,1,.52-1.24c0.06-.1.14-0.21,0.22-0.37a1.89,1.89,0,0,0,.34-0.4l0.36-.31A1.34,1.34,0,0,1,54.79,67a1.69,1.69,0,0,1,.5.1,0.47,0.47,0,0,1,.38.24c0,0.09,0,.14-0.08.14h0s0,0,0,0l-0.39.21L55,67.74a1.1,1.1,0,0,0-.18.19l-0.09,0a0.39,0.39,0,0,1-.18.2,2.12,2.12,0,0,1-.21.31,1.07,1.07,0,0,1-.16.17l-0.33.79-0.06.09a0.16,0.16,0,0,0,0,.05,0.05,0.05,0,0,1,0,0h0l0,0s0,0.05,0,0a1.81,1.81,0,0,1-.18.51,0.17,0.17,0,0,1,0,.14,0.17,0.17,0,0,1-.08.14h0v0.07l0,0,0,0s0,0,0,0a0.61,0.61,0,0,0,0,.24,0.53,0.53,0,0,0,0,.16,0.91,0.91,0,0,0,0,.12l0,0.28c0,0.07,0,.08,0,0l0,0.1a0.73,0.73,0,0,1,.1.25,0.22,0.22,0,0,1,.06,0,1,1,0,0,0,.78.63,1.48,1.48,0,0,0,.8-0.55A2.73,2.73,0,0,0,56,71.33h0a0,0,0,0,1,0,0v0a0.09,0.09,0,0,0,0,0,4.06,4.06,0,0,0,.56-1.49,3.81,3.81,0,0,0,0-.62l-0.06,0a0.11,0.11,0,0,0,0,0s0,0,0,0a2.29,2.29,0,0,0-.12-0.61A2,2,0,0,1,56,68.28a0.5,0.5,0,0,1-.31-0.43,0.29,0.29,0,0,1-.05-0.14,0.19,0.19,0,0,1,.16-0.24,1.88,1.88,0,0,1,.51.13,3.57,3.57,0,0,1,.48.17,1.18,1.18,0,0,1,.28.34,4.26,4.26,0,0,0,.5-0.2l0.49-.27h0s0,0,0,0A6.29,6.29,0,0,1,59,67.21a5.86,5.86,0,0,1,1.82-.52c0.13,0,.2,0,0.2.06a0.16,0.16,0,0,1-.18.16M56,67.75a0.74,0.74,0,0,1-.08.17,0.43,0.43,0,0,0,.43.28l0.05,0A1,1,0,0,0,56,67.75M56,71.45V71.39h0Zm0.7-2.51v0h0Z"/><path class="cls-1" d="M60.88,66.92l-0.11,0-0.13,0H60.5a7,7,0,0,0-1.67.56c-0.29.16-.73,0.38-1.32,0.67a2.05,2.05,0,0,1-.31.15c0.05,0.14.1,0.25,0.12,0.32l0,0.32a7.59,7.59,0,0,1-.09,1,4.47,4.47,0,0,1-.56,1.51,5.16,5.16,0,0,1-.91,1.09,2.05,2.05,0,0,1-.74.33,3.31,3.31,0,0,1-.93-0.19,4.66,4.66,0,0,1-.78-0.5A0.62,0.62,0,0,0,53.17,72L53,71.5s-0.08-.3-0.08-0.32a0.17,0.17,0,0,1,0-.05,3.46,3.46,0,0,1,0-.68,3.37,3.37,0,0,0,0-.56l0.06,0a0.05,0.05,0,0,0,0,0,0.84,0.84,0,0,1,0-.23h0a6.64,6.64,0,0,1,.52-1.24c0.06-.1.14-0.21,0.22-0.37a1.89,1.89,0,0,0,.34-0.4l0.36-.31A1.34,1.34,0,0,1,54.79,67a1.69,1.69,0,0,1,.5.1,0.47,0.47,0,0,1,.38.24c0,0.09,0,.14-0.08.14h0s0,0,0,0l-0.39.21L55,67.74a1.1,1.1,0,0,0-.18.19l-0.09,0a0.39,0.39,0,0,1-.18.2,2.12,2.12,0,0,1-.21.31,1.07,1.07,0,0,1-.16.17l-0.33.79-0.06.09a0.16,0.16,0,0,0,0,.05,0.05,0.05,0,0,1,0,0h0l0,0s0,0.05,0,0a1.81,1.81,0,0,1-.18.51,0.17,0.17,0,0,1,0,.14,0.17,0.17,0,0,1-.08.14h0v0.07l0,0,0,0s0,0,0,0a0.61,0.61,0,0,0,0,.24,0.53,0.53,0,0,0,0,.16,0.91,0.91,0,0,0,0,.12l0,0.28c0,0.07,0,.08,0,0l0,0.1a0.73,0.73,0,0,1,.1.25,0.22,0.22,0,0,1,.06,0,1,1,0,0,0,.78.63,1.48,1.48,0,0,0,.8-0.55A2.73,2.73,0,0,0,56,71.33h0a0,0,0,0,1,0,0v0a0.09,0.09,0,0,0,0,0,4.06,4.06,0,0,0,.56-1.49,3.81,3.81,0,0,0,0-.62l-0.06,0a0.11,0.11,0,0,0,0,0s0,0,0,0a2.29,2.29,0,0,0-.12-0.61A2,2,0,0,1,56,68.28a0.5,0.5,0,0,1-.31-0.43,0.29,0.29,0,0,1-.05-0.14,0.19,0.19,0,0,1,.16-0.24,1.88,1.88,0,0,1,.51.13,3.57,3.57,0,0,1,.48.17,1.18,1.18,0,0,1,.28.34,4.26,4.26,0,0,0,.5-0.2l0.49-.27h0s0,0,0,0A6.29,6.29,0,0,1,59,67.21a5.86,5.86,0,0,1,1.82-.52c0.13,0,.2,0,0.2.06a0.16,0.16,0,0,1-.18.16M56,67.75a0.74,0.74,0,0,1-.08.17,0.43,0.43,0,0,0,.43.28l0.05,0A1,1,0,0,0,56,67.75M56,71.45V71.39h0Zm0.7-2.51v0h0Z"/><path class="cls-1" d="M67.79,67.52l0,0.23a0.07,0.07,0,0,1,0,0h0a1.06,1.06,0,0,0,0,.11,3.28,3.28,0,0,0-.29.45,1.43,1.43,0,0,0-.19.26c-0.08.11-.44,0.59-1.1,1.43-0.16.19-.36,0.42-0.59,0.71l-0.13.08a0.6,0.6,0,0,1-.08.1,0,0,0,0,0,0,0,0.48,0.48,0,0,0-.17.15C65,71.26,65,71.23,65,71.25a1.37,1.37,0,0,1-.27.29h0s0,0,0,0a2,2,0,0,1-1,.52,1.18,1.18,0,0,1-.85-0.5,1.14,1.14,0,0,1-.22-0.69l0,0a0.08,0.08,0,0,1,0-.08,0.21,0.21,0,0,1,0-.12,0.71,0.71,0,0,1-.06-0.28,1.55,1.55,0,0,1,0-.18c0-.13,0-0.28,0-0.44a1,1,0,0,0,0-.11V69.55h0c-0.05,0-.21.34-0.73,1.09v0.05c-0.11.16-.29,0.45-0.56,0.92,0,0,0,0,0,0a0.15,0.15,0,0,0-.06.07,0,0,0,0,0,0,0,0.24,0.24,0,0,1,0,.11L61,71.87s0,0,0,0C60.82,72,60.85,72,60.85,72h0s-0.06.09-.07,0.09l0,0,0,0.06s0,0,0,0h0a0.21,0.21,0,0,1-.15.07h0s0,0,0,0H60.46a0.05,0.05,0,0,1,0,0l0,0,0,0,0,0a0,0,0,0,1,0,0,0.07,0.07,0,0,0-.05,0l0,0h0a1.18,1.18,0,0,1-1-1.08,0.23,0.23,0,0,1,0-.1,0.06,0.06,0,0,0,0,0,0.11,0.11,0,0,1,0-.1,0.07,0.07,0,0,0,0,0V70.7s0-.33.09-1.32c0-.2,0-0.41.08-0.61s0.08-.36.1-0.48l0,0a0.84,0.84,0,0,1,.07-0.22h0a0.44,0.44,0,0,0,.08-0.27c0.09,0,0-.11.07-0.17a0,0,0,0,0,0,0l0.29-1a0.51,0.51,0,0,1,.4,0c0.45,0.12.48,0.2,0.48,0.25a0.1,0.1,0,0,1,0,.1,0.09,0.09,0,0,1,0,.08,0.92,0.92,0,0,0-.15.15,0.35,0.35,0,0,1-.06.1,3,3,0,0,1-.23.75l-0.11.46a0.22,0.22,0,0,1,0,.14s0,0,0,.12,0,0,0,0a0,0,0,0,0,0,0h0.05a0.18,0.18,0,0,0,0,.14,0.56,0.56,0,0,0-.07.14s0,0,0,0a0.33,0.33,0,0,1-.08.19s0,0,0,0l0,0a0.34,0.34,0,0,0-.08.29,0.14,0.14,0,0,0,0,.16,0.39,0.39,0,0,0,0,.24l0,0.15s0,0,0,0a0.74,0.74,0,0,1,0,.19l0,0a2,2,0,0,0,0,.23,1.4,1.4,0,0,1,0,.31,2.42,2.42,0,0,1,0,.33s0,0.07,0,.08a0.93,0.93,0,0,1,.09.31,0.22,0.22,0,0,0,.2.2c0.37,0,.77-0.55,1.48-1.64l0.59-1L62.49,69l0.16-.32,0.1-.26a1.76,1.76,0,0,1,.13-0.48s0,0,0,0a0.21,0.21,0,0,1,0-.1h0A1.2,1.2,0,0,1,63,67.4s0,0-.05,0A0.12,0.12,0,0,0,63,67.32a0,0,0,0,1,0,0l0-.11h0a1.44,1.44,0,0,1,.11-0.26s0,0,0,0a0.41,0.41,0,0,0,.12-0.32h0V66.49l0.07,0,0.05,0a0.89,0.89,0,0,0,.5.16H64l0.08,0s0,0,.14.08v0.05c0,0.07-.06.11,0,0.14a1.21,1.21,0,0,0-.24.46,1.66,1.66,0,0,1-.21.51,2.05,2.05,0,0,0-.09.33,9.43,9.43,0,0,0-.39,1.53l0,0,0,0.09a0.5,0.5,0,0,1,0,.12v0a0.45,0.45,0,0,1,0,.12,0.58,0.58,0,0,0,0,.11,1.44,1.44,0,0,1,0,.21,0.13,0.13,0,0,1,0,.11v0.12a0.12,0.12,0,0,1,0,.09v0.13c0,0.22.06,0.33,0.06,0.33s0.13,0.26.2,0.38,0.39,0,.77-0.27l0.4-.33c0.07-.07.18-0.18,0.34-0.31v0.05a0.15,0.15,0,0,1,.06-0.06s0,0,0,0a5.23,5.23,0,0,1,.56-0.62h0a0.06,0.06,0,0,1,0-.05l0,0h0a0.14,0.14,0,0,0,0-.07l0.33-.34a0.16,0.16,0,0,1,.09-0.14h0s0,0,0,0a0.18,0.18,0,0,0,.07-0.1,0.91,0.91,0,0,1,.26-0.33l0.66-1c0.06,0,.07-0.07,0-0.08s0.21-.31.39-0.54V67.41a0.61,0.61,0,0,1,.14-0.17h0.07a0.83,0.83,0,0,0,0,.09,0.75,0.75,0,0,1-.09.2M60,71.07l0,0h0Zm0.58,1.06h0l0,0Zm0.31-.21h0l0,0h0Zm2.38-1.14V70.7h0Zm1.33,0.85h0Zm1.59-2.12h0l0,0v0Z"/><path class="cls-1" d="M67.79,67.52l0,0.23a0.07,0.07,0,0,1,0,0h0a1.06,1.06,0,0,0,0,.11,3.28,3.28,0,0,0-.29.45,1.43,1.43,0,0,0-.19.26c-0.08.11-.44,0.59-1.1,1.43-0.16.19-.36,0.42-0.59,0.71l-0.13.08a0.6,0.6,0,0,1-.08.1,0,0,0,0,0,0,0,0.48,0.48,0,0,0-.17.15C65,71.26,65,71.23,65,71.25a1.37,1.37,0,0,1-.27.29h0s0,0,0,0a2,2,0,0,1-1,.52,1.18,1.18,0,0,1-.85-0.5,1.14,1.14,0,0,1-.22-0.69l0,0a0.08,0.08,0,0,1,0-.08,0.21,0.21,0,0,1,0-.12,0.71,0.71,0,0,1-.06-0.28,1.55,1.55,0,0,1,0-.18c0-.13,0-0.28,0-0.44a1,1,0,0,0,0-.11V69.55h0c-0.05,0-.21.34-0.73,1.09v0.05c-0.11.16-.29,0.45-0.56,0.92,0,0,0,0,0,0a0.15,0.15,0,0,0-.06.07,0,0,0,0,0,0,0,0.24,0.24,0,0,1,0,.11L61,71.87s0,0,0,0C60.82,72,60.85,72,60.85,72h0s-0.06.09-.07,0.09l0,0,0,0.06s0,0,0,0h0a0.21,0.21,0,0,1-.15.07h0s0,0,0,0H60.46a0.05,0.05,0,0,1,0,0l0,0,0,0,0,0a0,0,0,0,1,0,0,0.07,0.07,0,0,0-.05,0l0,0h0a1.18,1.18,0,0,1-1-1.08,0.23,0.23,0,0,1,0-.1,0.06,0.06,0,0,0,0,0,0.11,0.11,0,0,1,0-.1,0.07,0.07,0,0,0,0,0V70.7s0-.33.09-1.32c0-.2,0-0.41.08-0.61s0.08-.36.1-0.48l0,0a0.84,0.84,0,0,1,.07-0.22h0a0.44,0.44,0,0,0,.08-0.27c0.09,0,0-.11.07-0.17a0,0,0,0,0,0,0l0.29-1a0.51,0.51,0,0,1,.4,0c0.45,0.12.48,0.2,0.48,0.25a0.1,0.1,0,0,1,0,.1,0.09,0.09,0,0,1,0,.08,0.92,0.92,0,0,0-.15.15,0.35,0.35,0,0,1-.06.1,3,3,0,0,1-.23.75l-0.11.46a0.22,0.22,0,0,1,0,.14s0,0,0,.12,0,0,0,0a0,0,0,0,0,0,0h0.05a0.18,0.18,0,0,0,0,.14,0.56,0.56,0,0,0-.07.14s0,0,0,0a0.33,0.33,0,0,1-.08.19s0,0,0,0l0,0a0.34,0.34,0,0,0-.08.29,0.14,0.14,0,0,0,0,.16,0.39,0.39,0,0,0,0,.24l0,0.15s0,0,0,0a0.74,0.74,0,0,1,0,.19l0,0a2,2,0,0,0,0,.23,1.4,1.4,0,0,1,0,.31,2.42,2.42,0,0,1,0,.33s0,0.07,0,.08a0.93,0.93,0,0,1,.09.31,0.22,0.22,0,0,0,.2.2c0.37,0,.77-0.55,1.48-1.64l0.59-1L62.49,69l0.16-.32,0.1-.26a1.76,1.76,0,0,1,.13-0.48s0,0,0,0a0.21,0.21,0,0,1,0-.1h0A1.2,1.2,0,0,1,63,67.4s0,0-.05,0A0.12,0.12,0,0,0,63,67.32a0,0,0,0,1,0,0l0-.11h0a1.44,1.44,0,0,1,.11-0.26s0,0,0,0a0.41,0.41,0,0,0,.12-0.32h0V66.49l0.07,0,0.05,0a0.89,0.89,0,0,0,.5.16H64l0.08,0s0,0,.14.08v0.05c0,0.07-.06.11,0,0.14a1.21,1.21,0,0,0-.24.46,1.66,1.66,0,0,1-.21.51,2.05,2.05,0,0,0-.09.33,9.43,9.43,0,0,0-.39,1.53l0,0,0,0.09a0.5,0.5,0,0,1,0,.12v0a0.45,0.45,0,0,1,0,.12,0.58,0.58,0,0,0,0,.11,1.44,1.44,0,0,1,0,.21,0.13,0.13,0,0,1,0,.11v0.12a0.12,0.12,0,0,1,0,.09v0.13c0,0.22.06,0.33,0.06,0.33s0.13,0.26.2,0.38,0.39,0,.77-0.27l0.4-.33c0.07-.07.18-0.18,0.34-0.31v0.05a0.15,0.15,0,0,1,.06-0.06s0,0,0,0a5.23,5.23,0,0,1,.56-0.62h0a0.06,0.06,0,0,1,0-.05l0,0h0a0.14,0.14,0,0,0,0-.07l0.33-.34a0.16,0.16,0,0,1,.09-0.14h0s0,0,0,0a0.18,0.18,0,0,0,.07-0.1,0.91,0.91,0,0,1,.26-0.33l0.66-1c0.06,0,.07-0.07,0-0.08s0.21-.31.39-0.54V67.41a0.61,0.61,0,0,1,.14-0.17h0.07a0.83,0.83,0,0,0,0,.09,0.75,0.75,0,0,1-.09.2M60,71.07l0,0h0Zm0.58,1.06h0l0,0Zm0.31-.21h0l0,0h0Zm2.38-1.14V70.7h0Zm1.33,0.85h0Zm1.59-2.12h0l0,0v0Z"/><path class="cls-1" d="M73.52,66.57l0,0.22a0.83,0.83,0,0,1-.08.15,0.39,0.39,0,0,1-.08.29s0,0,0,0h0a0.19,0.19,0,0,0,0,.12,3.27,3.27,0,0,0-.29.47,1,1,0,0,0-.2.26c-0.08.13-.46,0.62-1.14,1.49L71,70.3l-0.13.08a0.59,0.59,0,0,1-.08.1,0.05,0.05,0,0,0,0,0,0.35,0.35,0,0,0-.18.15c-0.13.16-.11,0.13-0.17,0.15a1.43,1.43,0,0,1-.28.3l0,0s0,0,0,0l-0.08,0a2.1,2.1,0,0,1-1.35.6,0.44,0.44,0,0,1-.19,0h0s0,0,0,0l-0.14-.06A0.59,0.59,0,0,1,68,71.42,0.66,0.66,0,0,1,67.79,71c0-.2-0.07-0.32-0.07-0.37a1.19,1.19,0,0,0,0-.25,2.62,2.62,0,0,0,0-.3,0.3,0.3,0,0,1,0-.12,0.62,0.62,0,0,0,0-.15V69.69l0.07-.25a0.26,0.26,0,0,0,0-.19L68,69A5.32,5.32,0,0,1,68.44,68l0.33-.63s0,0,0,0a7.2,7.2,0,0,1-.75.4l-0.16,0H67.8a0.79,0.79,0,0,1-.31-0.08,1,1,0,0,1-.23.22H67.21l-0.05,0-0.1-.09a3,3,0,0,1,.26-0.33,1.06,1.06,0,0,1-.49-0.66,2.39,2.39,0,0,1,.53-1.42,0.4,0.4,0,0,1,.32-0.12,1.55,1.55,0,0,1,.74.27,1.23,1.23,0,0,1,0,.21,0.29,0.29,0,0,1,0,.2,0.15,0.15,0,0,0,0,.09,4.37,4.37,0,0,1-.7,1.29,0.14,0.14,0,0,0,.19.09,1.36,1.36,0,0,0,.46-0.21,6,6,0,0,0,1.39-1.2,0.83,0.83,0,0,1,.21-0.3l0.06,0a1.28,1.28,0,0,1,.46.1,0.69,0.69,0,0,1,.37.18c-0.27.26-.54,0.53-0.82,0.78a6.15,6.15,0,0,0-.68,1l-0.3.63a7.5,7.5,0,0,0-.36.94l0,0.28s-0.06,0,0,.2l-0.08.45a0.22,0.22,0,0,0,0,.23,0.22,0.22,0,0,1,0,.15l0,0.4a0.1,0.1,0,0,0,0,.05v0.07l0,0a0.58,0.58,0,0,0,.37.2A1.65,1.65,0,0,0,69.74,71a7.6,7.6,0,0,0,.84-0.71v0.05a0.15,0.15,0,0,1,.06-0.06s0,0,0,0a5.36,5.36,0,0,1,.57-0.64h0a0,0,0,0,1,0,0v0l0,0s0,0,0,0a0.38,0.38,0,0,0,0-.07c0.08-.1.19-0.22,0.34-0.36A0.17,0.17,0,0,1,71.73,69h0a0.25,0.25,0,0,0,.08-0.1,1.45,1.45,0,0,1,.26-0.34c0.14-.19.38-0.51,0.7-1l0.05,0a0.06,0.06,0,0,0,0-.07c0.21-.3.41-0.6,0.61-0.91Zm-5.45-.78a1.64,1.64,0,0,0-.47.7,1,1,0,0,0-.09.77l0.39-.88c0.14-.36.22-0.54,0.22-0.54a0.11,0.11,0,0,0,0,0M70,71.21h0ZM71.76,69h0l0,0h0Z"/><path class="cls-1" d="M73.52,66.57l0,0.22a0.83,0.83,0,0,1-.08.15,0.39,0.39,0,0,1-.08.29s0,0,0,0h0a0.19,0.19,0,0,0,0,.12,3.27,3.27,0,0,0-.29.47,1,1,0,0,0-.2.26c-0.08.13-.46,0.62-1.14,1.49L71,70.3l-0.13.08a0.59,0.59,0,0,1-.08.1,0.05,0.05,0,0,0,0,0,0.35,0.35,0,0,0-.18.15c-0.13.16-.11,0.13-0.17,0.15a1.43,1.43,0,0,1-.28.3l0,0s0,0,0,0l-0.08,0a2.1,2.1,0,0,1-1.35.6,0.44,0.44,0,0,1-.19,0h0s0,0,0,0l-0.14-.06A0.59,0.59,0,0,1,68,71.42,0.66,0.66,0,0,1,67.79,71c0-.2-0.07-0.32-0.07-0.37a1.19,1.19,0,0,0,0-.25,2.62,2.62,0,0,0,0-.3,0.3,0.3,0,0,1,0-.12,0.62,0.62,0,0,0,0-.15V69.69l0.07-.25a0.26,0.26,0,0,0,0-.19L68,69A5.32,5.32,0,0,1,68.44,68l0.33-.63s0,0,0,0a7.2,7.2,0,0,1-.75.4l-0.16,0H67.8a0.79,0.79,0,0,1-.31-0.08,1,1,0,0,1-.23.22H67.21l-0.05,0-0.1-.09a3,3,0,0,1,.26-0.33,1.06,1.06,0,0,1-.49-0.66,2.39,2.39,0,0,1,.53-1.42,0.4,0.4,0,0,1,.32-0.12,1.55,1.55,0,0,1,.74.27,1.23,1.23,0,0,1,0,.21,0.29,0.29,0,0,1,0,.2,0.15,0.15,0,0,0,0,.09,4.37,4.37,0,0,1-.7,1.29,0.14,0.14,0,0,0,.19.09,1.36,1.36,0,0,0,.46-0.21,6,6,0,0,0,1.39-1.2,0.83,0.83,0,0,1,.21-0.3l0.06,0a1.28,1.28,0,0,1,.46.1,0.69,0.69,0,0,1,.37.18c-0.27.26-.54,0.53-0.82,0.78a6.15,6.15,0,0,0-.68,1l-0.3.63a7.5,7.5,0,0,0-.36.94l0,0.28s-0.06,0,0,.2l-0.08.45a0.22,0.22,0,0,0,0,.23,0.22,0.22,0,0,1,0,.15l0,0.4a0.1,0.1,0,0,0,0,.05v0.07l0,0a0.58,0.58,0,0,0,.37.2A1.65,1.65,0,0,0,69.74,71a7.6,7.6,0,0,0,.84-0.71v0.05a0.15,0.15,0,0,1,.06-0.06s0,0,0,0a5.36,5.36,0,0,1,.57-0.64h0a0,0,0,0,1,0,0v0l0,0s0,0,0,0a0.38,0.38,0,0,0,0-.07c0.08-.1.19-0.22,0.34-0.36A0.17,0.17,0,0,1,71.73,69h0a0.25,0.25,0,0,0,.08-0.1,1.45,1.45,0,0,1,.26-0.34c0.14-.19.38-0.51,0.7-1l0.05,0a0.06,0.06,0,0,0,0-.07c0.21-.3.41-0.6,0.61-0.91Zm-5.45-.78a1.64,1.64,0,0,0-.47.7,1,1,0,0,0-.09.77l0.39-.88c0.14-.36.22-0.54,0.22-0.54a0.11,0.11,0,0,0,0,0M70,71.21h0ZM71.76,69h0l0,0h0Z"/><path class="cls-1" d="M83.36,65.67a0.1,0.1,0,0,0,0,0l-0.25.4-0.57.46a1.07,1.07,0,0,1-.21.2,0.58,0.58,0,0,0-.14.08,11.3,11.3,0,0,1-1.11.78L81,67.7l-0.81.52-0.82.54c-0.19.09-.27,0.14-0.21,0.14h0s0,0,0,0A0.42,0.42,0,0,0,79,69a0.7,0.7,0,0,0-.2.16,3.81,3.81,0,0,1-.1.53,3,3,0,0,1-.47.84,2.58,2.58,0,0,1-.28.28,1.31,1.31,0,0,1-.28.25h0s0,0,0,0a0.05,0.05,0,0,0,0,0,0.61,0.61,0,0,1-.27.12l-0.18,0-0.2,0A1.51,1.51,0,0,1,76.26,71a0.37,0.37,0,0,0-.11-0.14,0.84,0.84,0,0,1,.21-0.47l0.32-.31a9.17,9.17,0,0,1,1-.74l0.25-.14L78,69.14c0-.39,0-0.72,0-1s0-.63,0-1.16a0.64,0.64,0,0,1-.13.15h0a0.05,0.05,0,0,0,0,0v0.08a2.75,2.75,0,0,1-.45.61c-0.13,0-.2,0-0.21-0.09a1.44,1.44,0,0,1,.13-0.18,1.88,1.88,0,0,0,.26-0.42A0.14,0.14,0,0,0,77.66,67l0.33-.6a5.53,5.53,0,0,1,.07-1h0V65.37A2.66,2.66,0,0,1,78.1,65c0.06-.34.13-0.56,0.15-0.68a2.43,2.43,0,0,1,.33-0.66,0.37,0.37,0,0,1,.21-0.17,1.25,1.25,0,0,1,.45.12,0.42,0.42,0,0,1,.32.19h0a1.06,1.06,0,0,1-.05.45,9.76,9.76,0,0,1-.79,1.65,0.79,0.79,0,0,0,0,.24c0,0.31,0,.48,0,0.5,0,0.4,0,.8,0,1.19,0,0.19,0,.46,0,0.8l0.09,0h0A0.58,0.58,0,0,1,79,68.54s0,0,0,0l0-.08,0,0a0.44,0.44,0,0,0,.12-0.12s0,0,0,0h0l0.09,0h0l0.15-.11h0s0,0,0,0a2.25,2.25,0,0,1,.72-0.46l0.07-.06h0s0,0,0,0l0.35-.23a2.15,2.15,0,0,1,.49-0.27s0,0,0,0h0L81.64,67a7.27,7.27,0,0,1,.78-0.61,4.13,4.13,0,0,0,.9-0.83h0a0.21,0.21,0,0,1,0,.05,0.21,0.21,0,0,1,0,.07M76.6,71.21l0,0h0v0ZM77.46,70a7.59,7.59,0,0,0-.69.73,0.35,0.35,0,0,0-.08.17l0.21,0s0,0,0,0h0a1.12,1.12,0,0,0,.81-0.48,2.74,2.74,0,0,0,.31-0.83,4,4,0,0,0-.6.43m1.81-6.15a4.93,4.93,0,0,0-.52,1.68l0.41-.81a1.7,1.7,0,0,0,.21-0.7,0.13,0.13,0,0,0-.09-0.17"/><path class="cls-1" d="M83.36,65.67a0.1,0.1,0,0,0,0,0l-0.25.4-0.57.46a1.07,1.07,0,0,1-.21.2,0.58,0.58,0,0,0-.14.08,11.3,11.3,0,0,1-1.11.78L81,67.7l-0.81.52-0.82.54c-0.19.09-.27,0.14-0.21,0.14h0s0,0,0,0A0.42,0.42,0,0,0,79,69a0.7,0.7,0,0,0-.2.16,3.81,3.81,0,0,1-.1.53,3,3,0,0,1-.47.84,2.58,2.58,0,0,1-.28.28,1.31,1.31,0,0,1-.28.25h0s0,0,0,0a0.05,0.05,0,0,0,0,0,0.61,0.61,0,0,1-.27.12l-0.18,0-0.2,0A1.51,1.51,0,0,1,76.26,71a0.37,0.37,0,0,0-.11-0.14,0.84,0.84,0,0,1,.21-0.47l0.32-.31a9.17,9.17,0,0,1,1-.74l0.25-.14L78,69.14c0-.39,0-0.72,0-1s0-.63,0-1.16a0.64,0.64,0,0,1-.13.15h0a0.05,0.05,0,0,0,0,0v0.08a2.75,2.75,0,0,1-.45.61c-0.13,0-.2,0-0.21-0.09a1.44,1.44,0,0,1,.13-0.18,1.88,1.88,0,0,0,.26-0.42A0.14,0.14,0,0,0,77.66,67l0.33-.6a5.53,5.53,0,0,1,.07-1h0V65.37A2.66,2.66,0,0,1,78.1,65c0.06-.34.13-0.56,0.15-0.68a2.43,2.43,0,0,1,.33-0.66,0.37,0.37,0,0,1,.21-0.17,1.25,1.25,0,0,1,.45.12,0.42,0.42,0,0,1,.32.19h0a1.06,1.06,0,0,1-.05.45,9.76,9.76,0,0,1-.79,1.65,0.79,0.79,0,0,0,0,.24c0,0.31,0,.48,0,0.5,0,0.4,0,.8,0,1.19,0,0.19,0,.46,0,0.8l0.09,0h0A0.58,0.58,0,0,1,79,68.54s0,0,0,0l0-.08,0,0a0.44,0.44,0,0,0,.12-0.12s0,0,0,0h0l0.09,0h0l0.15-.11h0s0,0,0,0a2.25,2.25,0,0,1,.72-0.46l0.07-.06h0s0,0,0,0l0.35-.23a2.15,2.15,0,0,1,.49-0.27s0,0,0,0h0L81.64,67a7.27,7.27,0,0,1,.78-0.61,4.13,4.13,0,0,0,.9-0.83h0a0.21,0.21,0,0,1,0,.05,0.21,0.21,0,0,1,0,.07M76.6,71.21l0,0h0v0ZM77.46,70a7.59,7.59,0,0,0-.69.73,0.35,0.35,0,0,0-.08.17l0.21,0s0,0,0,0h0a1.12,1.12,0,0,0,.81-0.48,2.74,2.74,0,0,0,.31-0.83,4,4,0,0,0-.6.43m1.81-6.15a4.93,4.93,0,0,0-.52,1.68l0.41-.81a1.7,1.7,0,0,0,.21-0.7,0.13,0.13,0,0,0-.09-0.17"/><path class="cls-1" d="M87.64,66.51a2.51,2.51,0,0,0-.26.4,3.76,3.76,0,0,0-.38.51s0,0,0,0a0.08,0.08,0,0,0,0,.08h0c-0.11.13-.24,0.33-0.41,0.57s-0.23.3-.52,0.59c0,0,0,0,0,0l-0.85.88s0,0,0,0l-0.68.51,0,0s0,0,0,0l-0.11.05s0,0,0,0l-0.15.11,0,0c-0.08,0-.09.06,0,0.06h0l-0.1,0H83.86l0,0-0.07,0s0,0,0,0l-0.25,0-0.11,0h0s0,0,0,0a0.11,0.11,0,0,1-.07,0A0.57,0.57,0,0,1,83,70.16l-0.49-.28a3,3,0,0,1-.69-0.81l-0.1-.26a0.7,0.7,0,0,1-.08-0.29,0.15,0.15,0,0,0,0-.11V68.32a1.59,1.59,0,0,0,0-.52s0,0,0,0a1,1,0,0,1,0-.38,2.71,2.71,0,0,1,.14-0.53A0.46,0.46,0,0,1,82,66.5a0.12,0.12,0,0,1,0-.08,0.45,0.45,0,0,1,.17-0.34,3,3,0,0,1,1.18-1.56l0.08,0a0.47,0.47,0,0,1,.32-0.13,1.45,1.45,0,0,1,.47.09,2.19,2.19,0,0,1,.79.42,0.91,0.91,0,0,1,.44.52,2.08,2.08,0,0,1-.2,1,0.32,0.32,0,0,1,0,.1,0.86,0.86,0,0,0-.13.23,2.67,2.67,0,0,1-1.13.93,2.6,2.6,0,0,1-.79.27,4.45,4.45,0,0,1-.62-0.19c0,0.16-.08.35-0.08,0.74,0,0.08,0,.19,0,0.34s0-.1.07,0.33c0,0,0,.12.17,0.39a1,1,0,0,0,.87.44,1.42,1.42,0,0,0,.4-0.1l0.29-.12,0.06,0h0s0,0,0,0,0,0,.1-0.09A3.3,3.3,0,0,0,85,69.18a6,6,0,0,0,.85-0.86l0.51-.61c0.25-.28.54-0.63,0.86-1.06L87.75,66l0,0.07a0.74,0.74,0,0,1-.15.47M84.51,65l0,0a0.52,0.52,0,0,0-.26-0.25,0.58,0.58,0,0,0-.32.16l-0.56.57-0.18.22a0.3,0.3,0,0,1-.07.13,3.38,3.38,0,0,1-.26.49,0.58,0.58,0,0,1-.09.2v0a0.52,0.52,0,0,1-.1.24,1.31,1.31,0,0,1-.15.45,0.62,0.62,0,0,1,0,.22V67.6h0.25l0.35-.11,0.32-.15,0.26-.18a5,5,0,0,0,.59-0.76,1.76,1.76,0,0,1,.18-0.24,0.39,0.39,0,0,1,.11-0.26,0.65,0.65,0,0,1,0-.29c0-.16,0-0.24,0-0.24A0.47,0.47,0,0,0,84.51,65"/><path class="cls-1" d="M87.64,66.51a2.51,2.51,0,0,0-.26.4,3.76,3.76,0,0,0-.38.51s0,0,0,0a0.08,0.08,0,0,0,0,.08h0c-0.11.13-.24,0.33-0.41,0.57s-0.23.3-.52,0.59c0,0,0,0,0,0l-0.85.88s0,0,0,0l-0.68.51,0,0s0,0,0,0l-0.11.05s0,0,0,0l-0.15.11,0,0c-0.08,0-.09.06,0,0.06h0l-0.1,0H83.86l0,0-0.07,0s0,0,0,0l-0.25,0-0.11,0h0s0,0,0,0a0.11,0.11,0,0,1-.07,0A0.57,0.57,0,0,1,83,70.16l-0.49-.28a3,3,0,0,1-.69-0.81l-0.1-.26a0.7,0.7,0,0,1-.08-0.29,0.15,0.15,0,0,0,0-.11V68.32a1.59,1.59,0,0,0,0-.52s0,0,0,0a1,1,0,0,1,0-.38,2.71,2.71,0,0,1,.14-0.53A0.46,0.46,0,0,1,82,66.5a0.12,0.12,0,0,1,0-.08,0.45,0.45,0,0,1,.17-0.34,3,3,0,0,1,1.18-1.56l0.08,0a0.47,0.47,0,0,1,.32-0.13,1.45,1.45,0,0,1,.47.09,2.19,2.19,0,0,1,.79.42,0.91,0.91,0,0,1,.44.52,2.08,2.08,0,0,1-.2,1,0.32,0.32,0,0,1,0,.1,0.86,0.86,0,0,0-.13.23,2.67,2.67,0,0,1-1.13.93,2.6,2.6,0,0,1-.79.27,4.45,4.45,0,0,1-.62-0.19c0,0.16-.08.35-0.08,0.74,0,0.08,0,.19,0,0.34s0-.1.07,0.33c0,0,0,.12.17,0.39a1,1,0,0,0,.87.44,1.42,1.42,0,0,0,.4-0.1l0.29-.12,0.06,0h0s0,0,0,0,0,0,.1-0.09A3.3,3.3,0,0,0,85,69.18a6,6,0,0,0,.85-0.86l0.51-.61c0.25-.28.54-0.63,0.86-1.06L87.75,66l0,0.07a0.74,0.74,0,0,1-.15.47M84.51,65l0,0a0.52,0.52,0,0,0-.26-0.25,0.58,0.58,0,0,0-.32.16l-0.56.57-0.18.22a0.3,0.3,0,0,1-.07.13,3.38,3.38,0,0,1-.26.49,0.58,0.58,0,0,1-.09.2v0a0.52,0.52,0,0,1-.1.24,1.31,1.31,0,0,1-.15.45,0.62,0.62,0,0,1,0,.22V67.6h0.25l0.35-.11,0.32-.15,0.26-.18a5,5,0,0,0,.59-0.76,1.76,1.76,0,0,1,.18-0.24,0.39,0.39,0,0,1,.11-0.26,0.65,0.65,0,0,1,0-.29c0-.16,0-0.24,0-0.24A0.47,0.47,0,0,0,84.51,65"/><path class="cls-1" d="M93.69,64.86l0,0.22a0.76,0.76,0,0,1-.08.15,0.39,0.39,0,0,1-.08.29s0,0,0,0h0a0.18,0.18,0,0,0,0,.12,3.19,3.19,0,0,0-.29.47,1,1,0,0,0-.2.26c-0.08.13-.46,0.62-1.14,1.49l-0.61.75-0.12.08a0.53,0.53,0,0,1-.08.1,0.05,0.05,0,0,0,0,0,0.35,0.35,0,0,0-.19.15c-0.13.16-.11,0.13-0.17,0.15a1.42,1.42,0,0,1-.28.3,0,0,0,0,0,0,0s0,0,0,0l-0.08,0a2.1,2.1,0,0,1-1.35.6,0.42,0.42,0,0,1-.19,0h0s0,0,0,0L88.54,70a0.59,0.59,0,0,1-.42-0.27A0.67,0.67,0,0,1,88,69.32c0-.2-0.07-0.32-0.07-0.37a1.1,1.1,0,0,0,0-.26,2.22,2.22,0,0,0,0-.3,0.34,0.34,0,0,1,0-.12,0.58,0.58,0,0,0,0-.15V68L88,67.74a0.26,0.26,0,0,0,0-.19l0.11-.22a5.27,5.27,0,0,1,.47-1.06l0.33-.63s0,0,0,0a6.92,6.92,0,0,1-.75.4l-0.16,0H88A0.81,0.81,0,0,1,87.66,66a1,1,0,0,1-.23.22H87.37l-0.05,0-0.1-.09a3.11,3.11,0,0,1,.26-0.33A1.07,1.07,0,0,1,87,65.16a2.39,2.39,0,0,1,.53-1.42,0.4,0.4,0,0,1,.32-0.12,1.55,1.55,0,0,1,.74.27,1.33,1.33,0,0,1,0,.21,0.28,0.28,0,0,1,0,.2,0.14,0.14,0,0,0,0,.09,4.35,4.35,0,0,1-.7,1.29,0.14,0.14,0,0,0,.19.09,1.35,1.35,0,0,0,.46-0.21,5.93,5.93,0,0,0,1.39-1.2,0.84,0.84,0,0,1,.21-0.3l0.06,0a1.28,1.28,0,0,1,.46.1,0.7,0.7,0,0,1,.37.18c-0.27.26-.54,0.53-0.82,0.78a6.23,6.23,0,0,0-.68,1l-0.3.63a7.19,7.19,0,0,0-.36.94l0,0.28s-0.06,0,0,.2l-0.08.45a0.22,0.22,0,0,0,0,.23,0.22,0.22,0,0,1,0,.15l0,0.4a0.12,0.12,0,0,0,0,.05v0.07l0,0a0.57,0.57,0,0,0,.37.2,1.66,1.66,0,0,0,.77-0.44,7.71,7.71,0,0,0,.84-0.71v0.05a0.15,0.15,0,0,1,.06-0.06s0,0,0,0a5.45,5.45,0,0,1,.57-0.64h0a0,0,0,0,1,0,0v0l0,0s0,0,0,0a0.29,0.29,0,0,0,0-.07c0.08-.1.19-0.22,0.34-0.36a0.16,0.16,0,0,1,.09-0.14h0a0.24,0.24,0,0,0,.08-0.1,1.47,1.47,0,0,1,.26-0.34c0.14-.19.38-0.51,0.7-1l0.05,0a0.06,0.06,0,0,0,0-.07c0.21-.3.41-0.6,0.61-0.91Zm-5.45-.78a1.65,1.65,0,0,0-.47.7,1,1,0,0,0-.09.77l0.39-.88,0.22-.54a0.1,0.1,0,0,0,0,0m1.94,5.43h0Zm1.74-2.24h0l0,0h0Z"/><path class="cls-1" d="M93.69,64.86l0,0.22a0.76,0.76,0,0,1-.08.15,0.39,0.39,0,0,1-.08.29s0,0,0,0h0a0.18,0.18,0,0,0,0,.12,3.19,3.19,0,0,0-.29.47,1,1,0,0,0-.2.26c-0.08.13-.46,0.62-1.14,1.49l-0.61.75-0.12.08a0.53,0.53,0,0,1-.08.1,0.05,0.05,0,0,0,0,0,0.35,0.35,0,0,0-.19.15c-0.13.16-.11,0.13-0.17,0.15a1.42,1.42,0,0,1-.28.3,0,0,0,0,0,0,0s0,0,0,0l-0.08,0a2.1,2.1,0,0,1-1.35.6,0.42,0.42,0,0,1-.19,0h0s0,0,0,0L88.54,70a0.59,0.59,0,0,1-.42-0.27A0.67,0.67,0,0,1,88,69.32c0-.2-0.07-0.32-0.07-0.37a1.1,1.1,0,0,0,0-.26,2.22,2.22,0,0,0,0-.3,0.34,0.34,0,0,1,0-.12,0.58,0.58,0,0,0,0-.15V68L88,67.74a0.26,0.26,0,0,0,0-.19l0.11-.22a5.27,5.27,0,0,1,.47-1.06l0.33-.63s0,0,0,0a6.92,6.92,0,0,1-.75.4l-0.16,0H88A0.81,0.81,0,0,1,87.66,66a1,1,0,0,1-.23.22H87.37l-0.05,0-0.1-.09a3.11,3.11,0,0,1,.26-0.33A1.07,1.07,0,0,1,87,65.16a2.39,2.39,0,0,1,.53-1.42,0.4,0.4,0,0,1,.32-0.12,1.55,1.55,0,0,1,.74.27,1.33,1.33,0,0,1,0,.21,0.28,0.28,0,0,1,0,.2,0.14,0.14,0,0,0,0,.09,4.35,4.35,0,0,1-.7,1.29,0.14,0.14,0,0,0,.19.09,1.35,1.35,0,0,0,.46-0.21,5.93,5.93,0,0,0,1.39-1.2,0.84,0.84,0,0,1,.21-0.3l0.06,0a1.28,1.28,0,0,1,.46.1,0.7,0.7,0,0,1,.37.18c-0.27.26-.54,0.53-0.82,0.78a6.23,6.23,0,0,0-.68,1l-0.3.63a7.19,7.19,0,0,0-.36.94l0,0.28s-0.06,0,0,.2l-0.08.45a0.22,0.22,0,0,0,0,.23,0.22,0.22,0,0,1,0,.15l0,0.4a0.12,0.12,0,0,0,0,.05v0.07l0,0a0.57,0.57,0,0,0,.37.2,1.66,1.66,0,0,0,.77-0.44,7.71,7.71,0,0,0,.84-0.71v0.05a0.15,0.15,0,0,1,.06-0.06s0,0,0,0a5.45,5.45,0,0,1,.57-0.64h0a0,0,0,0,1,0,0v0l0,0s0,0,0,0a0.29,0.29,0,0,0,0-.07c0.08-.1.19-0.22,0.34-0.36a0.16,0.16,0,0,1,.09-0.14h0a0.24,0.24,0,0,0,.08-0.1,1.47,1.47,0,0,1,.26-0.34c0.14-.19.38-0.51,0.7-1l0.05,0a0.06,0.06,0,0,0,0-.07c0.21-.3.41-0.6,0.61-0.91Zm-5.45-.78a1.65,1.65,0,0,0-.47.7,1,1,0,0,0-.09.77l0.39-.88,0.22-.54a0.1,0.1,0,0,0,0,0m1.94,5.43h0Zm1.74-2.24h0l0,0h0Z"/><path class="cls-1" d="M96.9,63.09a2.85,2.85,0,0,1-.4.27,1.22,1.22,0,0,0,0,.18,1.27,1.27,0,0,1-.24.88l-0.41.73a0.79,0.79,0,0,1-.12.25c-0.11.24-.28,0.6-0.52,1.07l-0.55,1.13c-0.08.18-.17,0.47-0.37,1.09-0.05.18-.14,0.44-0.25,0.77-0.06.11-.29,0.06-0.69-0.13a1.18,1.18,0,0,1-.18-0.23A1.57,1.57,0,0,1,93,68.84a3.44,3.44,0,0,1-.17-0.64,0.49,0.49,0,0,0,0-.24,0.45,0.45,0,0,0,0-.19c0-.07,0-0.11,0-0.12s0-.29,0-0.4l0-.37c0-.43,0-0.39,0-0.4a0,0,0,0,0,0,0q0-.32.12-0.89a3,3,0,0,0,0-.36c0-.07,0-0.23.11-0.54a0.49,0.49,0,0,1,0-.31,0.24,0.24,0,0,1,.16-0.24,1.32,1.32,0,0,1,.22,0c0.05,0,.26.1,0.3,0.09h0s0,0,0,0a1.24,1.24,0,0,1,.25.18v0.07a5.18,5.18,0,0,1-.13.78,7.33,7.33,0,0,1-.15.76l-0.09.62a5.39,5.39,0,0,0,0,.93,3.73,3.73,0,0,0,.25,1.18h0a11.5,11.5,0,0,1,.51-1.28c0.1-.22.43-0.85,1-1.88a1.09,1.09,0,0,1,.12-0.17V65.41l0.41-.81,0.07-.17a0.06,0.06,0,0,0,0-.07h0A1.2,1.2,0,0,1,96,64.12a0.41,0.41,0,0,0,0-.2,0.07,0.07,0,0,0,0,0h0V63.8a0.33,0.33,0,0,0,0-.16,0.23,0.23,0,0,0-.22-0.25,0.7,0.7,0,0,1-.41-0.1,1.42,1.42,0,0,1-.34-0.4,0,0,0,0,1,0-.05A0.38,0.38,0,0,1,95,62.66a0.2,0.2,0,0,1,.18-0.26,1.34,1.34,0,0,1,.43.1,2.22,2.22,0,0,1,.37.14,1.73,1.73,0,0,1,.37.48,4.69,4.69,0,0,0,.43-0.18c0.06,0,.07-0.07.06-0.07s0.06,0,.08.11a0.39,0.39,0,0,1-.06.11m-1.46-.39c-0.2.08-.19,0.31,0.34,0.48l0,0,0.06,0a1.05,1.05,0,0,0-.45-0.47m0.1,2.5h0v0Z"/><path class="cls-1" d="M96.9,63.09a2.85,2.85,0,0,1-.4.27,1.22,1.22,0,0,0,0,.18,1.27,1.27,0,0,1-.24.88l-0.41.73a0.79,0.79,0,0,1-.12.25c-0.11.24-.28,0.6-0.52,1.07l-0.55,1.13c-0.08.18-.17,0.47-0.37,1.09-0.05.18-.14,0.44-0.25,0.77-0.06.11-.29,0.06-0.69-0.13a1.18,1.18,0,0,1-.18-0.23A1.57,1.57,0,0,1,93,68.84a3.44,3.44,0,0,1-.17-0.64,0.49,0.49,0,0,0,0-.24,0.45,0.45,0,0,0,0-.19c0-.07,0-0.11,0-0.12s0-.29,0-0.4l0-.37c0-.43,0-0.39,0-0.4a0,0,0,0,0,0,0q0-.32.12-0.89a3,3,0,0,0,0-.36c0-.07,0-0.23.11-0.54a0.49,0.49,0,0,1,0-.31,0.24,0.24,0,0,1,.16-0.24,1.32,1.32,0,0,1,.22,0c0.05,0,.26.1,0.3,0.09h0s0,0,0,0a1.24,1.24,0,0,1,.25.18v0.07a5.18,5.18,0,0,1-.13.78,7.33,7.33,0,0,1-.15.76l-0.09.62a5.39,5.39,0,0,0,0,.93,3.73,3.73,0,0,0,.25,1.18h0a11.5,11.5,0,0,1,.51-1.28c0.1-.22.43-0.85,1-1.88a1.09,1.09,0,0,1,.12-0.17V65.41l0.41-.81,0.07-.17a0.06,0.06,0,0,0,0-.07h0A1.2,1.2,0,0,1,96,64.12a0.41,0.41,0,0,0,0-.2,0.07,0.07,0,0,0,0,0h0V63.8a0.33,0.33,0,0,0,0-.16,0.23,0.23,0,0,0-.22-0.25,0.7,0.7,0,0,1-.41-0.1,1.42,1.42,0,0,1-.34-0.4,0,0,0,0,1,0-.05A0.38,0.38,0,0,1,95,62.66a0.2,0.2,0,0,1,.18-0.26,1.34,1.34,0,0,1,.43.1,2.22,2.22,0,0,1,.37.14,1.73,1.73,0,0,1,.37.48,4.69,4.69,0,0,0,.43-0.18c0.06,0,.07-0.07.06-0.07s0.06,0,.08.11a0.39,0.39,0,0,1-.06.11m-1.46-.39c-0.2.08-.19,0.31,0.34,0.48l0,0,0.06,0a1.05,1.05,0,0,0-.45-0.47m0.1,2.5h0v0Z"/><path class="cls-1" d="M103.41,64.52a0.21,0.21,0,0,1,0,.09,0.23,0.23,0,0,0-.1.24,1.89,1.89,0,0,0-.19.3,0.52,0.52,0,0,0-.18.31c-0.3.39-.71,0.94-1.28,1.65l-0.61.75a0.37,0.37,0,0,0-.21.2,0.67,0.67,0,0,0-.27.28l-0.08,0a1.53,1.53,0,0,1-.28.3,0,0,0,0,0,0,0,0,0,0,0,0,0,0l-0.26.2a1.35,1.35,0,0,1-.5.18,1,1,0,0,1-.57-0.14,1.25,1.25,0,0,1-.83-0.63,0.82,0.82,0,0,1-.16-0.5l0-.1s0-.11,0-0.12,0-.16,0-0.65c0-.29.08-0.58,0.14-0.87l0,0,0,0a0.34,0.34,0,0,1,.08-0.14,0.06,0.06,0,0,1,0,0,1,1,0,0,1,.13-0.37h0a4.69,4.69,0,0,1,.21-0.7A2.54,2.54,0,0,1,98.55,64a1.08,1.08,0,0,0,0-.2,0.24,0.24,0,0,0,0-.06c0-.05,0-0.08,0-0.08h0s0,0,0,0l0.13-.06a2,2,0,0,1,.69.24,0.25,0.25,0,0,1,0,.22l-0.07.1-0.25.58a2.23,2.23,0,0,0-.14.51l-0.07.13c0,0.05,0,.08,0,0.07a0.14,0.14,0,0,0,0,.07,6.71,6.71,0,0,0-.34,2.3c0.06,0.65.27,1,.63,0.92a1.72,1.72,0,0,0,.57-0.25s0,0,0,0h0s0,0,.1-0.09a3.18,3.18,0,0,0,.73-0.58,0.07,0.07,0,0,0,0,.05,0.07,0.07,0,0,1,0-.06s0,0,0,0a5.34,5.34,0,0,1,.58-0.65h0a0,0,0,0,1,0,0,0,0,0,0,0,0,0h0a0.49,0.49,0,0,1,0-.08,4,4,0,0,1,.34-0.35,0.19,0.19,0,0,1,.09-0.16s0,0,0,0h0a0.19,0.19,0,0,0,.07-0.1,1.44,1.44,0,0,1,.27-0.35c0.13-.18.37-0.51,0.68-1l0.55-.81a1.27,1.27,0,0,1,0,.17s0,0,0,.08m-3-2.94a1.13,1.13,0,0,0-.16.25l-0.1.25a0.38,0.38,0,0,1-.2.3l-0.31-.05-0.31-.05h0l0,0c-0.09,0-.14,0-0.15-0.16A0.8,0.8,0,0,1,99.23,62l0.07-.21,0.16-.35a0.3,0.3,0,0,1,.25-0.14l0.16,0a1.37,1.37,0,0,1,.59.15,0.39,0.39,0,0,1,0,.12m-0.33,7.18v0h0Zm1.69-2.23h0l0,0Z"/><path class="cls-1" d="M103.41,64.52a0.21,0.21,0,0,1,0,.09,0.23,0.23,0,0,0-.1.24,1.89,1.89,0,0,0-.19.3,0.52,0.52,0,0,0-.18.31c-0.3.39-.71,0.94-1.28,1.65l-0.61.75a0.37,0.37,0,0,0-.21.2,0.67,0.67,0,0,0-.27.28l-0.08,0a1.53,1.53,0,0,1-.28.3,0,0,0,0,0,0,0,0,0,0,0,0,0,0l-0.26.2a1.35,1.35,0,0,1-.5.18,1,1,0,0,1-.57-0.14,1.25,1.25,0,0,1-.83-0.63,0.82,0.82,0,0,1-.16-0.5l0-.1s0-.11,0-0.12,0-.16,0-0.65c0-.29.08-0.58,0.14-0.87l0,0,0,0a0.34,0.34,0,0,1,.08-0.14,0.06,0.06,0,0,1,0,0,1,1,0,0,1,.13-0.37h0a4.69,4.69,0,0,1,.21-0.7A2.54,2.54,0,0,1,98.55,64a1.08,1.08,0,0,0,0-.2,0.24,0.24,0,0,0,0-.06c0-.05,0-0.08,0-0.08h0s0,0,0,0l0.13-.06a2,2,0,0,1,.69.24,0.25,0.25,0,0,1,0,.22l-0.07.1-0.25.58a2.23,2.23,0,0,0-.14.51l-0.07.13c0,0.05,0,.08,0,0.07a0.14,0.14,0,0,0,0,.07,6.71,6.71,0,0,0-.34,2.3c0.06,0.65.27,1,.63,0.92a1.72,1.72,0,0,0,.57-0.25s0,0,0,0h0s0,0,.1-0.09a3.18,3.18,0,0,0,.73-0.58,0.07,0.07,0,0,0,0,.05,0.07,0.07,0,0,1,0-.06s0,0,0,0a5.34,5.34,0,0,1,.58-0.65h0a0,0,0,0,1,0,0,0,0,0,0,0,0,0h0a0.49,0.49,0,0,1,0-.08,4,4,0,0,1,.34-0.35,0.19,0.19,0,0,1,.09-0.16s0,0,0,0h0a0.19,0.19,0,0,0,.07-0.1,1.44,1.44,0,0,1,.27-0.35c0.13-.18.37-0.51,0.68-1l0.55-.81a1.27,1.27,0,0,1,0,.17s0,0,0,.08m-3-2.94a1.13,1.13,0,0,0-.16.25l-0.1.25a0.38,0.38,0,0,1-.2.3l-0.31-.05-0.31-.05h0l0,0c-0.09,0-.14,0-0.15-0.16A0.8,0.8,0,0,1,99.23,62l0.07-.21,0.16-.35a0.3,0.3,0,0,1,.25-0.14l0.16,0a1.37,1.37,0,0,1,.59.15,0.39,0.39,0,0,1,0,.12m-0.33,7.18v0h0Zm1.69-2.23h0l0,0Z"/><path class="cls-1" d="M107.89,65.06a3.06,3.06,0,0,0-.21.33,5.5,5.5,0,0,0-.36.49s0,0,0,0,0,0,0,0a0.14,0.14,0,0,0,0,.11,0.6,0.6,0,0,1-.22.26,0,0,0,0,0,0,0c-0.28.34-.67,0.79-1.22,1.36a0.07,0.07,0,0,0,0,.06,0.7,0.7,0,0,0-.25.23,1.81,1.81,0,0,0-.29.22l-0.18.16s0,0,0,0a0,0,0,0,0,0,.06h0a0,0,0,0,0,0,0h0a0.27,0.27,0,0,0-.09.06l0,0s0,0,0,0l-0.1,0a0,0,0,0,0,0,0l-0.15.11h0c-0.06,0-.09,0,0,0h0l-0.09,0h-0.11a0,0,0,0,1,0,0,0.07,0.07,0,0,1-.06,0s0,0,0,0l-0.25,0-0.1,0s0,0,0,0h0a0.11,0.11,0,0,1-.07,0,0.69,0.69,0,0,1-.27-0.08l-0.47-.2a2.09,2.09,0,0,1-.82-1.31l-0.07-.22a0.89,0.89,0,0,0,0-.28,1.17,1.17,0,0,1,0-.19,0.4,0.4,0,0,1,0-.17l0.09-.24a0.12,0.12,0,0,1,0-.08l0-.06a0.29,0.29,0,0,1,0-.12,2,2,0,0,1,.29-0.84,0,0,0,0,1,0,0l0.34-.79q0.31-.37.79-1a0.2,0.2,0,0,0,.1,0,0.69,0.69,0,0,1,.32-0.19,0.81,0.81,0,0,0,.13,0h0l0,0,0.56,0.15a2.46,2.46,0,0,1,1,.63l0.07,0a1.36,1.36,0,0,0,.17.29,0.38,0.38,0,0,1,.07.22,0.12,0.12,0,0,1-.11.16,1,1,0,0,1-.41-0.11,0.54,0.54,0,0,1-.3-0.26,0.51,0.51,0,0,0,0-.2A0.85,0.85,0,0,0,105,63.3a1.7,1.7,0,0,0-.27-0.18,0.33,0.33,0,0,0-.13,0,0.58,0.58,0,0,0-.25.14,0.42,0.42,0,0,1-.12.14h0s0,0,0,0l-0.17.21a2.23,2.23,0,0,0-.4.7,1.43,1.43,0,0,0-.11.2l0,0.19a3.55,3.55,0,0,0-.28.75L103.1,66a0.32,0.32,0,0,1,0,.11,3.73,3.73,0,0,0-.07.38,0.44,0.44,0,0,0,0,.19,0.17,0.17,0,0,0,0,.07c0,0.05,0,.33,0,0.33a2.45,2.45,0,0,0,.11.69,3,3,0,0,0,.25.37,0.89,0.89,0,0,0,.64.2,1.13,1.13,0,0,0,.39-0.09,0.54,0.54,0,0,0,.34-0.16h0s0,0,0,0a3,3,0,0,1,.54-0.38c0.11-.1.28-0.26,0.54-0.49a1.32,1.32,0,0,1,.2-0.26h0a1.44,1.44,0,0,1,.38-0.42h0a1.59,1.59,0,0,1,.25-0.38h0l0.81-1,0.45-.61,0,0.06a0.86,0.86,0,0,1-.18.48"/><path class="cls-1" d="M107.89,65.06a3.06,3.06,0,0,0-.21.33,5.5,5.5,0,0,0-.36.49s0,0,0,0,0,0,0,0a0.14,0.14,0,0,0,0,.11,0.6,0.6,0,0,1-.22.26,0,0,0,0,0,0,0c-0.28.34-.67,0.79-1.22,1.36a0.07,0.07,0,0,0,0,.06,0.7,0.7,0,0,0-.25.23,1.81,1.81,0,0,0-.29.22l-0.18.16s0,0,0,0a0,0,0,0,0,0,.06h0a0,0,0,0,0,0,0h0a0.27,0.27,0,0,0-.09.06l0,0s0,0,0,0l-0.1,0a0,0,0,0,0,0,0l-0.15.11h0c-0.06,0-.09,0,0,0h0l-0.09,0h-0.11a0,0,0,0,1,0,0,0.07,0.07,0,0,1-.06,0s0,0,0,0l-0.25,0-0.1,0s0,0,0,0h0a0.11,0.11,0,0,1-.07,0,0.69,0.69,0,0,1-.27-0.08l-0.47-.2a2.09,2.09,0,0,1-.82-1.31l-0.07-.22a0.89,0.89,0,0,0,0-.28,1.17,1.17,0,0,1,0-.19,0.4,0.4,0,0,1,0-.17l0.09-.24a0.12,0.12,0,0,1,0-.08l0-.06a0.29,0.29,0,0,1,0-.12,2,2,0,0,1,.29-0.84,0,0,0,0,1,0,0l0.34-.79q0.31-.37.79-1a0.2,0.2,0,0,0,.1,0,0.69,0.69,0,0,1,.32-0.19,0.81,0.81,0,0,0,.13,0h0l0,0,0.56,0.15a2.46,2.46,0,0,1,1,.63l0.07,0a1.36,1.36,0,0,0,.17.29,0.38,0.38,0,0,1,.07.22,0.12,0.12,0,0,1-.11.16,1,1,0,0,1-.41-0.11,0.54,0.54,0,0,1-.3-0.26,0.51,0.51,0,0,0,0-.2A0.85,0.85,0,0,0,105,63.3a1.7,1.7,0,0,0-.27-0.18,0.33,0.33,0,0,0-.13,0,0.58,0.58,0,0,0-.25.14,0.42,0.42,0,0,1-.12.14h0s0,0,0,0l-0.17.21a2.23,2.23,0,0,0-.4.7,1.43,1.43,0,0,0-.11.2l0,0.19a3.55,3.55,0,0,0-.28.75L103.1,66a0.32,0.32,0,0,1,0,.11,3.73,3.73,0,0,0-.07.38,0.44,0.44,0,0,0,0,.19,0.17,0.17,0,0,0,0,.07c0,0.05,0,.33,0,0.33a2.45,2.45,0,0,0,.11.69,3,3,0,0,0,.25.37,0.89,0.89,0,0,0,.64.2,1.13,1.13,0,0,0,.39-0.09,0.54,0.54,0,0,0,.34-0.16h0s0,0,0,0a3,3,0,0,1,.54-0.38c0.11-.1.28-0.26,0.54-0.49a1.32,1.32,0,0,1,.2-0.26h0a1.44,1.44,0,0,1,.38-0.42h0a1.59,1.59,0,0,1,.25-0.38h0l0.81-1,0.45-.61,0,0.06a0.86,0.86,0,0,1-.18.48"/><path class="cls-1" d="M113.16,64.36a2.42,2.42,0,0,0-.26.4,3.71,3.71,0,0,0-.38.51s0,0,0,0a0.09,0.09,0,0,0,0,.08h0c-0.11.13-.24,0.33-0.41,0.57s-0.23.3-.52,0.59c0,0,0,0,0,0l-0.85.88s0,0,0,0L110,67.9l0,0s0,0,0,0l-0.11,0s0,0,0,0l-0.15.11,0,0c-0.07,0-.09.06,0,0.06h0l-0.1,0h-0.11l0,0a0.11,0.11,0,0,1-.07,0s0,0,0,0l-0.25,0-0.11,0h0s0,0,0,0a0.12,0.12,0,0,1-.07,0,0.58,0.58,0,0,1-.29-0.1l-0.49-.28a3,3,0,0,1-.69-0.81l-0.1-.26a0.7,0.7,0,0,1-.08-0.29,0.15,0.15,0,0,0,0-.11V66.16a1.58,1.58,0,0,0,0-.52s0,0,0,0a1,1,0,0,1,0-.37,2.67,2.67,0,0,1,.14-0.53,0.46,0.46,0,0,1,.14-0.4,0.12,0.12,0,0,1,0-.08,0.45,0.45,0,0,1,.17-0.34,3,3,0,0,1,1.18-1.56l0.08,0a0.47,0.47,0,0,1,.32-0.13,1.47,1.47,0,0,1,.47.09,2.24,2.24,0,0,1,.79.42,0.91,0.91,0,0,1,.44.53,2.09,2.09,0,0,1-.2,1,0.33,0.33,0,0,1,0,.1,0.81,0.81,0,0,0-.13.22,2.66,2.66,0,0,1-1.13.93,2.63,2.63,0,0,1-.79.27,4.39,4.39,0,0,1-.62-0.19c0,0.16-.08.35-0.08,0.74,0,0.08,0,.19,0,0.34s0-.1.07,0.33c0,0,0,.12.17,0.39a1,1,0,0,0,.87.43,1.39,1.39,0,0,0,.4-0.1l0.29-.12,0.06,0h0s0,0,0,0,0,0,.1-0.09a3.33,3.33,0,0,0,.62-0.45,6.09,6.09,0,0,0,.85-0.86l0.51-.61c0.25-.28.54-0.63,0.86-1.06l0.49-.67,0,0.06a0.74,0.74,0,0,1-.15.47M110,62.88l0,0a0.51,0.51,0,0,0-.26-0.25,0.58,0.58,0,0,0-.32.16l-0.56.57-0.18.22a0.31,0.31,0,0,1-.07.13,3.44,3.44,0,0,1-.26.49,0.58,0.58,0,0,1-.09.2v0a0.51,0.51,0,0,1-.1.24,1.32,1.32,0,0,1-.15.45,0.64,0.64,0,0,1,0,.22v0.13h0.25l0.35-.11,0.32-.15,0.26-.18a5,5,0,0,0,.59-0.76A1.8,1.8,0,0,1,110,64a0.39,0.39,0,0,1,.11-0.26,0.66,0.66,0,0,1,0-.29c0-.16,0-0.25,0-0.25a0.47,0.47,0,0,0-.11-0.34"/><path class="cls-1" d="M113.16,64.36a2.42,2.42,0,0,0-.26.4,3.71,3.71,0,0,0-.38.51s0,0,0,0a0.09,0.09,0,0,0,0,.08h0c-0.11.13-.24,0.33-0.41,0.57s-0.23.3-.52,0.59c0,0,0,0,0,0l-0.85.88s0,0,0,0L110,67.9l0,0s0,0,0,0l-0.11,0s0,0,0,0l-0.15.11,0,0c-0.07,0-.09.06,0,0.06h0l-0.1,0h-0.11l0,0a0.11,0.11,0,0,1-.07,0s0,0,0,0l-0.25,0-0.11,0h0s0,0,0,0a0.12,0.12,0,0,1-.07,0,0.58,0.58,0,0,1-.29-0.1l-0.49-.28a3,3,0,0,1-.69-0.81l-0.1-.26a0.7,0.7,0,0,1-.08-0.29,0.15,0.15,0,0,0,0-.11V66.16a1.58,1.58,0,0,0,0-.52s0,0,0,0a1,1,0,0,1,0-.37,2.67,2.67,0,0,1,.14-0.53,0.46,0.46,0,0,1,.14-0.4,0.12,0.12,0,0,1,0-.08,0.45,0.45,0,0,1,.17-0.34,3,3,0,0,1,1.18-1.56l0.08,0a0.47,0.47,0,0,1,.32-0.13,1.47,1.47,0,0,1,.47.09,2.24,2.24,0,0,1,.79.42,0.91,0.91,0,0,1,.44.53,2.09,2.09,0,0,1-.2,1,0.33,0.33,0,0,1,0,.1,0.81,0.81,0,0,0-.13.22,2.66,2.66,0,0,1-1.13.93,2.63,2.63,0,0,1-.79.27,4.39,4.39,0,0,1-.62-0.19c0,0.16-.08.35-0.08,0.74,0,0.08,0,.19,0,0.34s0-.1.07,0.33c0,0,0,.12.17,0.39a1,1,0,0,0,.87.43,1.39,1.39,0,0,0,.4-0.1l0.29-.12,0.06,0h0s0,0,0,0,0,0,.1-0.09a3.33,3.33,0,0,0,.62-0.45,6.09,6.09,0,0,0,.85-0.86l0.51-.61c0.25-.28.54-0.63,0.86-1.06l0.49-.67,0,0.06a0.74,0.74,0,0,1-.15.47M110,62.88l0,0a0.51,0.51,0,0,0-.26-0.25,0.58,0.58,0,0,0-.32.16l-0.56.57-0.18.22a0.31,0.31,0,0,1-.07.13,3.44,3.44,0,0,1-.26.49,0.58,0.58,0,0,1-.09.2v0a0.51,0.51,0,0,1-.1.24,1.32,1.32,0,0,1-.15.45,0.64,0.64,0,0,1,0,.22v0.13h0.25l0.35-.11,0.32-.15,0.26-.18a5,5,0,0,0,.59-0.76A1.8,1.8,0,0,1,110,64a0.39,0.39,0,0,1,.11-0.26,0.66,0.66,0,0,1,0-.29c0-.16,0-0.25,0-0.25a0.47,0.47,0,0,0-.11-0.34"/></svg>